<svg width="65" height="65" viewBox="0 0 65 65" fill="none" xmlns="http://www.w3.org/2000/svg">
<g clip-path="url(#clip0_107_12799)">
<path d="M32.7492 41.6677C37.674 41.6677 41.6664 37.6753 41.6664 32.7505C41.6664 27.8257 37.674 23.8333 32.7492 23.8333C27.8244 23.8333 23.832 27.8257 23.832 32.7505C23.832 37.6753 27.8244 41.6677 32.7492 41.6677Z" fill="url(#paint0_linear_107_12799)"/>
<path d="M22.2192 52.3125H43.7798C45.7134 52.3125 47.2515 50.7217 47.0435 48.8887C45.7007 37.0781 37.687 37.2734 37.687 32C37.687 26.7266 45.8032 27.0195 47.0425 15.1113C47.2378 13.2773 45.7134 11.6875 43.7798 11.6875H22.2192C20.2857 11.6875 18.7651 13.2773 18.9565 15.1113C20.1958 27.0195 28.312 26.6289 28.312 32C28.312 37.3711 20.2983 37.0781 18.9565 48.8887C18.7476 50.7217 20.2857 52.3125 22.2192 52.3125Z" stroke="#A5BCFF" stroke-linecap="round" stroke-linejoin="round"/>
<path d="M25.8329 22.0177L25.8328 22.0175C25.7722 21.9345 25.7341 21.8505 25.7167 21.7794C25.6991 21.7075 25.7063 21.6662 25.7114 21.6511C25.7114 21.6509 25.7115 21.6506 25.7116 21.6504C25.7138 21.6438 25.7171 21.6337 25.7441 21.6181C25.7802 21.5973 25.8701 21.5625 26.0512 21.5625H39.9897C40.1216 21.5625 40.1936 21.5913 40.2283 21.6122C40.2607 21.6317 40.2772 21.6539 40.2874 21.6789C40.3107 21.7361 40.3156 21.8673 40.2089 22.0155L40.2086 22.0159C39.2293 23.3789 37.9503 24.4158 36.7904 25.356C36.6664 25.4565 36.5438 25.5559 36.4231 25.6544C35.8105 26.1545 35.2316 26.6459 34.8073 27.1465C34.3824 27.6478 34.061 28.2173 34.061 28.875V38.8359C34.061 39.7468 34.48 40.5199 35.0751 41.1888C35.6659 41.8528 36.4644 42.453 37.2998 43.0259C37.649 43.2653 37.9989 43.4964 38.3482 43.7272C38.8606 44.0656 39.3717 44.4032 39.8776 44.7651C40.7142 45.3638 41.4653 45.9816 42.0271 46.6613C42.4263 47.1444 42.5247 47.6913 42.4203 48.0747C42.3693 48.2622 42.272 48.4089 42.1387 48.51C42.0063 48.6104 41.8099 48.6875 41.5239 48.6875H24.5151C23.9819 48.6875 23.686 48.4012 23.5816 48.0351C23.4699 47.6441 23.5703 47.1158 23.9867 46.6905C24.5992 46.0698 25.3786 45.4826 26.2258 44.8952C26.5582 44.6647 26.9072 44.4301 27.2585 44.194C27.7811 43.8428 28.3089 43.488 28.7951 43.1379C29.6183 42.545 30.3936 41.9168 30.9651 41.2269C31.5398 40.5329 31.936 39.7427 31.936 38.8359V28.875C31.936 28.2226 31.6223 27.6553 31.2043 27.1539C30.7872 26.6534 30.2175 26.1617 29.6123 25.6608C29.481 25.5522 29.3473 25.4425 29.212 25.3314C28.0747 24.3982 26.8181 23.367 25.8329 22.0177Z" fill="#A5BCFF" stroke="#A5BCFF"/>
<path d="M50.468 38.44V27.16H50.912V38.44H50.468ZM50.672 37.06C50.048 37.06 49.456 36.956 48.896 36.748C48.344 36.532 47.916 36.256 47.612 35.92L47.888 35.464C48.176 35.76 48.568 36.012 49.064 36.22C49.568 36.42 50.1 36.52 50.66 36.52C51.22 36.52 51.676 36.448 52.028 36.304C52.388 36.152 52.652 35.952 52.82 35.704C52.996 35.456 53.084 35.18 53.084 34.876C53.084 34.516 52.988 34.228 52.796 34.012C52.604 33.796 52.352 33.624 52.04 33.496C51.728 33.368 51.388 33.26 51.02 33.172C50.652 33.084 50.28 32.992 49.904 32.896C49.528 32.792 49.184 32.66 48.872 32.5C48.56 32.34 48.308 32.124 48.116 31.852C47.932 31.572 47.84 31.212 47.84 30.772C47.84 30.372 47.944 30.004 48.152 29.668C48.36 29.332 48.684 29.06 49.124 28.852C49.564 28.644 50.128 28.54 50.816 28.54C51.28 28.54 51.736 28.608 52.184 28.744C52.64 28.88 53.028 29.064 53.348 29.296L53.12 29.788C52.768 29.548 52.388 29.372 51.98 29.26C51.58 29.14 51.192 29.08 50.816 29.08C50.28 29.08 49.836 29.156 49.484 29.308C49.132 29.46 48.872 29.664 48.704 29.92C48.536 30.168 48.452 30.448 48.452 30.76C48.452 31.12 48.544 31.408 48.728 31.624C48.92 31.84 49.172 32.012 49.484 32.14C49.796 32.268 50.14 32.376 50.516 32.464C50.892 32.552 51.264 32.648 51.632 32.752C52 32.848 52.34 32.976 52.652 33.136C52.964 33.296 53.216 33.512 53.408 33.784C53.6 34.056 53.696 34.408 53.696 34.84C53.696 35.232 53.588 35.6 53.372 35.944C53.156 36.28 52.824 36.552 52.376 36.76C51.936 36.96 51.368 37.06 50.672 37.06Z" fill="#A5BCFF"/>
<path d="M14.468 38.44V27.16H14.912V38.44H14.468ZM14.672 37.06C14.048 37.06 13.456 36.956 12.896 36.748C12.344 36.532 11.916 36.256 11.612 35.92L11.888 35.464C12.176 35.76 12.568 36.012 13.064 36.22C13.568 36.42 14.1 36.52 14.66 36.52C15.22 36.52 15.676 36.448 16.028 36.304C16.388 36.152 16.652 35.952 16.82 35.704C16.996 35.456 17.084 35.18 17.084 34.876C17.084 34.516 16.988 34.228 16.796 34.012C16.604 33.796 16.352 33.624 16.04 33.496C15.728 33.368 15.388 33.26 15.02 33.172C14.652 33.084 14.28 32.992 13.904 32.896C13.528 32.792 13.184 32.66 12.872 32.5C12.56 32.34 12.308 32.124 12.116 31.852C11.932 31.572 11.84 31.212 11.84 30.772C11.84 30.372 11.944 30.004 12.152 29.668C12.36 29.332 12.684 29.06 13.124 28.852C13.564 28.644 14.128 28.54 14.816 28.54C15.28 28.54 15.736 28.608 16.184 28.744C16.64 28.88 17.028 29.064 17.348 29.296L17.12 29.788C16.768 29.548 16.388 29.372 15.98 29.26C15.58 29.14 15.192 29.08 14.816 29.08C14.28 29.08 13.836 29.156 13.484 29.308C13.132 29.46 12.872 29.664 12.704 29.92C12.536 30.168 12.452 30.448 12.452 30.76C12.452 31.12 12.544 31.408 12.728 31.624C12.92 31.84 13.172 32.012 13.484 32.14C13.796 32.268 14.14 32.376 14.516 32.464C14.892 32.552 15.264 32.648 15.632 32.752C16 32.848 16.34 32.976 16.652 33.136C16.964 33.296 17.216 33.512 17.408 33.784C17.6 34.056 17.696 34.408 17.696 34.84C17.696 35.232 17.588 35.6 17.372 35.944C17.156 36.28 16.824 36.552 16.376 36.76C15.936 36.96 15.368 37.06 14.672 37.06Z" fill="#A5BCFF"/>
</g>
<defs>
<linearGradient id="paint0_linear_107_12799" x1="23.832" y1="34.1168" x2="39.0039" y2="34.0575" gradientUnits="userSpaceOnUse">
<stop stop-color="#0038FF"/>
<stop offset="1" stop-color="#8F00FF"/>
</linearGradient>
<clipPath id="clip0_107_12799">
<rect width="65" height="65" fill="white"/>
</clipPath>
</defs>
</svg>
