<svg width="65" height="65" viewBox="0 0 65 65" fill="none" xmlns="http://www.w3.org/2000/svg">
<g clip-path="url(#clip0_107_12765)">
<path d="M32.7492 41.6677C37.674 41.6677 41.6664 37.6753 41.6664 32.7505C41.6664 27.8257 37.674 23.8333 32.7492 23.8333C27.8244 23.8333 23.832 27.8257 23.832 32.7505C23.832 37.6753 27.8244 41.6677 32.7492 41.6677Z" fill="url(#paint0_linear_107_12765)"/>
<path d="M14.5263 44.2924L6 54.2398H60V30.0819L52.8947 22.9766L40.1053 35.7661L35.8421 31.5029L18.7895 48.5556L14.5263 44.2924Z" stroke="#A5BCFF"/>
<circle cx="50.0545" cy="44.148" r="7.60526" stroke="#A5BCFF"/>
<path d="M36.1587 10.0058L36.0846 9.51135L36.1587 10.0058ZM36.7219 10.6046L37.2109 10.7089L36.7219 10.6046ZM27.4673 11.3091L27.3931 10.8146V10.8146L27.4673 11.3091ZM27.1772 12.1461L27.5414 11.8036V11.8036L27.1772 12.1461ZM29.035 14.1215L29.3776 14.4858L29.7418 14.1432L29.3992 13.779L29.035 14.1215ZM14.3071 27.9728L13.9645 27.6085H13.9645L14.3071 27.9728ZM14.2637 29.3863L13.8995 29.7289H13.8995L14.2637 29.3863ZM16.0366 31.2714L16.4009 30.9289H16.4009L16.0366 31.2714ZM17.4502 31.3148L17.7927 31.679H17.7927L17.4502 31.3148ZM32.1781 17.4635L32.5423 17.121L32.1998 16.7568L31.8356 17.0993L32.1781 17.4635ZM34.0351 19.4381L34.3993 19.0955V19.0955L34.0351 19.4381ZM34.8883 19.1998L34.3993 19.0955V19.0955L34.8883 19.1998ZM36.2329 10.5003L36.2329 10.5003L37.2109 10.7089C37.3566 10.026 36.7752 9.4078 36.0846 9.51135L36.2329 10.5003ZM27.5414 11.8036L36.2329 10.5003L36.0846 9.51135L27.3931 10.8146L27.5414 11.8036ZM27.5414 11.8036V11.8036L27.3931 10.8146C26.5952 10.9343 26.2602 11.9009 26.813 12.4887L27.5414 11.8036ZM29.3992 13.779L27.5414 11.8036L26.813 12.4887L28.6708 14.4641L29.3992 13.779ZM14.6496 28.337L29.3776 14.4858L28.6925 13.7573L13.9645 27.6085L14.6496 28.337ZM14.628 29.0438C14.4388 28.8426 14.4485 28.5262 14.6496 28.337L13.9645 27.6085C13.3611 28.1761 13.332 29.1254 13.8995 29.7289L14.628 29.0438ZM16.4009 30.9289L14.628 29.0438L13.8995 29.7289L15.6724 31.614L16.4009 30.9289ZM17.1076 30.9506C16.9065 31.1398 16.5901 31.13 16.4009 30.9289L15.6724 31.614C16.24 32.2175 17.1893 32.2466 17.7927 31.679L17.1076 30.9506ZM31.8356 17.0993L17.1076 30.9506L17.7927 31.679L32.5206 17.8278L31.8356 17.0993ZM34.3993 19.0955L32.5423 17.121L31.8139 17.8061L33.6709 19.7806L34.3993 19.0955ZM34.3993 19.0955L34.3993 19.0955L33.6709 19.7806C34.2236 20.3683 35.209 20.0932 35.3773 19.3041L34.3993 19.0955ZM36.2329 10.5003L34.3993 19.0955L35.3773 19.3041L37.2109 10.7089L36.2329 10.5003Z" fill="#A5BCFF"/>
<path d="M49.468 50.44V39.16H49.912V50.44H49.468ZM49.672 49.06C49.048 49.06 48.456 48.956 47.896 48.748C47.344 48.532 46.916 48.256 46.612 47.92L46.888 47.464C47.176 47.76 47.568 48.012 48.064 48.22C48.568 48.42 49.1 48.52 49.66 48.52C50.22 48.52 50.676 48.448 51.028 48.304C51.388 48.152 51.652 47.952 51.82 47.704C51.996 47.456 52.084 47.18 52.084 46.876C52.084 46.516 51.988 46.228 51.796 46.012C51.604 45.796 51.352 45.624 51.04 45.496C50.728 45.368 50.388 45.26 50.02 45.172C49.652 45.084 49.28 44.992 48.904 44.896C48.528 44.792 48.184 44.66 47.872 44.5C47.56 44.34 47.308 44.124 47.116 43.852C46.932 43.572 46.84 43.212 46.84 42.772C46.84 42.372 46.944 42.004 47.152 41.668C47.36 41.332 47.684 41.06 48.124 40.852C48.564 40.644 49.128 40.54 49.816 40.54C50.28 40.54 50.736 40.608 51.184 40.744C51.64 40.88 52.028 41.064 52.348 41.296L52.12 41.788C51.768 41.548 51.388 41.372 50.98 41.26C50.58 41.14 50.192 41.08 49.816 41.08C49.28 41.08 48.836 41.156 48.484 41.308C48.132 41.46 47.872 41.664 47.704 41.92C47.536 42.168 47.452 42.448 47.452 42.76C47.452 43.12 47.544 43.408 47.728 43.624C47.92 43.84 48.172 44.012 48.484 44.14C48.796 44.268 49.14 44.376 49.516 44.464C49.892 44.552 50.264 44.648 50.632 44.752C51 44.848 51.34 44.976 51.652 45.136C51.964 45.296 52.216 45.512 52.408 45.784C52.6 46.056 52.696 46.408 52.696 46.84C52.696 47.232 52.588 47.6 52.372 47.944C52.156 48.28 51.824 48.552 51.376 48.76C50.936 48.96 50.368 49.06 49.672 49.06Z" fill="#A5BCFF"/>
</g>
<defs>
<linearGradient id="paint0_linear_107_12765" x1="23.832" y1="34.1168" x2="39.0039" y2="34.0575" gradientUnits="userSpaceOnUse">
<stop stop-color="#0038FF"/>
<stop offset="1" stop-color="#8F00FF"/>
</linearGradient>
<clipPath id="clip0_107_12765">
<rect width="65" height="65" fill="white"/>
</clipPath>
</defs>
</svg>
