<svg width="66" height="65" viewBox="0 0 66 65" fill="none" xmlns="http://www.w3.org/2000/svg">
<g clip-path="url(#clip0_107_12781)">
<path d="M33.2492 41.6677C38.174 41.6677 42.1664 37.6753 42.1664 32.7505C42.1664 27.8257 38.174 23.8333 33.2492 23.8333C28.3244 23.8333 24.332 27.8257 24.332 32.7505C24.332 37.6753 28.3244 41.6677 33.2492 41.6677Z" fill="url(#paint0_linear_107_12781)"/>
<path d="M17 48H12C10.8954 48 10 48.8954 10 50V51C10 52.1046 10.8954 53 12 53H28.5C29.6046 53 30.5 52.1046 30.5 51V50C30.5 48.8954 29.6046 48 28.5 48H27.5M17 48L8.01693 38.0713C7.68423 37.7036 7.5 37.2254 7.5 36.7295V13C7.5 11.8954 8.39543 11 9.5 11H14C15.1046 11 16 11.8954 16 13V24.5M17 48H27.5M16 24.5L13.2055 29.6898C12.7868 30.4675 12.9277 31.4277 13.5522 32.0522L17 35.5M16 24.5C21.9262 29.2974 25.0485 31.7223 26.4906 32.793C27.0988 33.2446 27.5 33.9785 27.5 34.7361V48" stroke="#A5BCFF"/>
<path d="M49 48H54C55.1046 48 56 48.8954 56 50V51C56 52.1046 55.1046 53 54 53H37.5C36.3954 53 35.5 52.1046 35.5 51V50C35.5 48.8954 36.3954 48 37.5 48H38.5M49 48L57.9831 38.0713C58.3158 37.7036 58.5 37.2254 58.5 36.7295V13C58.5 11.8954 57.6046 11 56.5 11H52C50.8954 11 50 11.8954 50 13V24.5M49 48H38.5M50 24.5L52.7945 29.6898C53.2132 30.4675 53.0723 31.4277 52.4478 32.0522L49 35.5M50 24.5C44.0738 29.2974 40.9515 31.7223 39.5094 32.793C38.9012 33.2446 38.5 33.9785 38.5 34.7361V48" stroke="#A5BCFF"/>
<path d="M39.1776 11.1787L25.6953 24.661L26.6488 25.6145L40.1311 12.1322L39.1776 11.1787Z" fill="#D7E1FE"/>
<path d="M28.8711 17.7422C28.2043 17.7422 27.5526 17.5445 26.9982 17.174C26.4439 16.8036 26.0118 16.2771 25.7566 15.6611C25.5015 15.0452 25.4347 14.3673 25.5648 13.7134C25.6948 13.0595 26.0159 12.4588 26.4874 11.9874C26.9588 11.5159 27.5595 11.1949 28.2134 11.0648C28.8673 10.9347 29.5451 11.0015 30.1611 11.2566C30.7771 11.5118 31.3036 11.9438 31.674 12.4982C32.0445 13.0526 32.2422 13.7044 32.2422 14.3711C32.2422 15.2652 31.887 16.1226 31.2548 16.7548C30.6226 17.387 29.7652 17.7422 28.8711 17.7422ZM28.8711 12.3484C28.471 12.3484 28.08 12.4671 27.7474 12.6893C27.4148 12.9116 27.1555 13.2274 27.0024 13.597C26.8493 13.9666 26.8092 14.3733 26.8873 14.7657C26.9653 15.158 27.158 15.5184 27.4408 15.8013C27.7237 16.0842 28.0841 16.2768 28.4765 16.3549C28.8688 16.4329 29.2755 16.3929 29.6451 16.2398C30.0147 16.0867 30.3306 15.8274 30.5528 15.4948C30.7751 15.1622 30.8937 14.7711 30.8937 14.3711C30.8937 13.8346 30.6806 13.3202 30.3013 12.9408C29.922 12.5615 29.4075 12.3484 28.8711 12.3484Z" fill="#D7E1FE"/>
<path d="M36.2891 25.8332C35.6223 25.8332 34.9706 25.6355 34.4162 25.265C33.8618 24.8946 33.4297 24.3681 33.1746 23.7522C32.9194 23.1362 32.8527 22.4583 32.9827 21.8044C33.1128 21.1505 33.4339 20.5498 33.9053 20.0784C34.3768 19.6069 34.9775 19.2859 35.6314 19.1558C36.2853 19.0257 36.9631 19.0925 37.5791 19.3476C38.1951 19.6028 38.7216 20.0348 39.092 20.5892C39.4624 21.1436 39.6601 21.7954 39.6601 22.4621C39.6601 23.3562 39.305 24.2136 38.6728 24.8458C38.0406 25.478 37.1831 25.8332 36.2891 25.8332ZM36.2891 20.4394C35.889 20.4394 35.498 20.5581 35.1653 20.7803C34.8327 21.0026 34.5734 21.3185 34.4203 21.688C34.2673 22.0576 34.2272 22.4643 34.3052 22.8567C34.3833 23.249 34.5759 23.6094 34.8588 23.8923C35.1417 24.1752 35.5021 24.3678 35.8945 24.4459C36.2868 24.5239 36.6935 24.4839 37.0631 24.3308C37.4327 24.1777 37.7486 23.9184 37.9708 23.5858C38.1931 23.2532 38.3117 22.8621 38.3117 22.4621C38.3117 21.9257 38.0986 21.4112 37.7193 21.0319C37.34 20.6525 36.8255 20.4394 36.2891 20.4394Z" fill="#D7E1FE"/>
</g>
<defs>
<linearGradient id="paint0_linear_107_12781" x1="24.332" y1="34.1168" x2="39.5039" y2="34.0575" gradientUnits="userSpaceOnUse">
<stop stop-color="#0038FF"/>
<stop offset="1" stop-color="#8F00FF"/>
</linearGradient>
<clipPath id="clip0_107_12781">
<rect width="65" height="65" fill="white" transform="translate(0.5)"/>
</clipPath>
</defs>
</svg>
