<svg width="66" height="65" viewBox="0 0 66 65" fill="none" xmlns="http://www.w3.org/2000/svg">
<g clip-path="url(#clip0_107_12738)">
<path d="M33.2492 41.6677C38.174 41.6677 42.1664 37.6753 42.1664 32.7505C42.1664 27.8257 38.174 23.8333 33.2492 23.8333C28.3244 23.8333 24.332 27.8257 24.332 32.7505C24.332 37.6753 28.3244 41.6677 33.2492 41.6677Z" fill="url(#paint0_linear_107_12738)"/>
<path d="M51.375 19.75H15.625C12.9326 19.75 10.75 21.8906 10.75 24.5312V46.8438C10.75 49.4844 12.9326 51.625 15.625 51.625H51.375C54.0674 51.625 56.25 49.4844 56.25 46.8438V24.5312C56.25 21.8906 54.0674 19.75 51.375 19.75Z" stroke="#A5BCFF" stroke-linejoin="round"/>
<path d="M22.125 19.75V16.5625C22.125 15.7171 22.4674 14.9064 23.0769 14.3086C23.6864 13.7108 24.513 13.375 25.375 13.375H41.625C42.487 13.375 43.3136 13.7108 43.9231 14.3086C44.5326 14.9064 44.875 15.7171 44.875 16.5625V19.75M56.25 30.9062H10.75M40 30.9062V33.2969C40 33.5082 39.9144 33.7109 39.762 33.8604C39.6097 34.0098 39.403 34.0938 39.1875 34.0938H27.8125C27.597 34.0938 27.3903 34.0098 27.238 33.8604C27.0856 33.7109 27 33.5082 27 33.2969V30.9062" stroke="#A5BCFF" stroke-linecap="round" stroke-linejoin="round"/>
</g>
<defs>
<linearGradient id="paint0_linear_107_12738" x1="24.332" y1="34.1169" x2="39.5039" y2="34.0575" gradientUnits="userSpaceOnUse">
<stop stop-color="#0038FF"/>
<stop offset="1" stop-color="#8F00FF"/>
</linearGradient>
<clipPath id="clip0_107_12738">
<rect width="65" height="65" fill="white" transform="translate(0.5)"/>
</clipPath>
</defs>
</svg>
