<svg width="66" height="65" viewBox="0 0 66 65" fill="none" xmlns="http://www.w3.org/2000/svg">
<g clip-path="url(#clip0_107_12750)">
<path d="M33.2492 41.6677C38.174 41.6677 42.1664 37.6753 42.1664 32.7505C42.1664 27.8257 38.174 23.8333 33.2492 23.8333C28.3244 23.8333 24.332 27.8257 24.332 32.7505C24.332 37.6753 28.3244 41.6677 33.2492 41.6677Z" fill="url(#paint0_linear_107_12750)"/>
<path d="M11.625 10.125V52.3125C11.625 52.7269 11.7896 53.1243 12.0826 53.4174C12.3757 53.7104 12.7731 53.875 13.1875 53.875H55.375" stroke="#A5BCFF" stroke-linecap="round" stroke-linejoin="round"/>
<path d="M23.7344 28.875H19.8281C18.7494 28.875 17.875 29.7494 17.875 30.8281V45.6719C17.875 46.7506 18.7494 47.625 19.8281 47.625H23.7344C24.8131 47.625 25.6875 46.7506 25.6875 45.6719V30.8281C25.6875 29.7494 24.8131 28.875 23.7344 28.875Z" stroke="#A5BCFF" stroke-linecap="round" stroke-linejoin="round"/>
<path d="M37.7969 24.1875H33.8906C32.8119 24.1875 31.9375 25.0619 31.9375 26.1406V45.6719C31.9375 46.7506 32.8119 47.625 33.8906 47.625H37.7969C38.8756 47.625 39.75 46.7506 39.75 45.6719V26.1406C39.75 25.0619 38.8756 24.1875 37.7969 24.1875Z" stroke="#A5BCFF" stroke-linecap="round" stroke-linejoin="round"/>
<path d="M51.8242 17.9375H47.918C46.8393 17.9375 45.9648 18.8119 45.9648 19.8906V45.6719C45.9648 46.7506 46.8393 47.625 47.918 47.625H51.8242C52.9029 47.625 53.7773 46.7506 53.7773 45.6719V19.8906C53.7773 18.8119 52.9029 17.9375 51.8242 17.9375Z" stroke="#A5BCFF" stroke-linecap="round" stroke-linejoin="round"/>
<path d="M20.968 24.44V13.16H21.412V24.44H20.968ZM21.172 23.06C20.548 23.06 19.956 22.956 19.396 22.748C18.844 22.532 18.416 22.256 18.112 21.92L18.388 21.464C18.676 21.76 19.068 22.012 19.564 22.22C20.068 22.42 20.6 22.52 21.16 22.52C21.72 22.52 22.176 22.448 22.528 22.304C22.888 22.152 23.152 21.952 23.32 21.704C23.496 21.456 23.584 21.18 23.584 20.876C23.584 20.516 23.488 20.228 23.296 20.012C23.104 19.796 22.852 19.624 22.54 19.496C22.228 19.368 21.888 19.26 21.52 19.172C21.152 19.084 20.78 18.992 20.404 18.896C20.028 18.792 19.684 18.66 19.372 18.5C19.06 18.34 18.808 18.124 18.616 17.852C18.432 17.572 18.34 17.212 18.34 16.772C18.34 16.372 18.444 16.004 18.652 15.668C18.86 15.332 19.184 15.06 19.624 14.852C20.064 14.644 20.628 14.54 21.316 14.54C21.78 14.54 22.236 14.608 22.684 14.744C23.14 14.88 23.528 15.064 23.848 15.296L23.62 15.788C23.268 15.548 22.888 15.372 22.48 15.26C22.08 15.14 21.692 15.08 21.316 15.08C20.78 15.08 20.336 15.156 19.984 15.308C19.632 15.46 19.372 15.664 19.204 15.92C19.036 16.168 18.952 16.448 18.952 16.76C18.952 17.12 19.044 17.408 19.228 17.624C19.42 17.84 19.672 18.012 19.984 18.14C20.296 18.268 20.64 18.376 21.016 18.464C21.392 18.552 21.764 18.648 22.132 18.752C22.5 18.848 22.84 18.976 23.152 19.136C23.464 19.296 23.716 19.512 23.908 19.784C24.1 20.056 24.196 20.408 24.196 20.84C24.196 21.232 24.088 21.6 23.872 21.944C23.656 22.28 23.324 22.552 22.876 22.76C22.436 22.96 21.868 23.06 21.172 23.06Z" fill="#A5BCFF"/>
</g>
<defs>
<linearGradient id="paint0_linear_107_12750" x1="24.332" y1="34.1169" x2="39.5039" y2="34.0575" gradientUnits="userSpaceOnUse">
<stop stop-color="#0038FF"/>
<stop offset="1" stop-color="#8F00FF"/>
</linearGradient>
<clipPath id="clip0_107_12750">
<rect width="65" height="65" fill="white" transform="translate(0.5)"/>
</clipPath>
</defs>
</svg>
