<svg width="406" height="481" viewBox="0 0 406 481" fill="none" xmlns="http://www.w3.org/2000/svg">
<path d="M393.042 248.026L393.042 248.026C395.103 252.099 395.303 257.516 393.901 262.994C392.5 268.466 389.514 273.942 385.285 278.104L385.636 278.46L385.285 278.104L191.128 469.381L191.128 469.381C186.896 473.554 182.251 475.6 178.194 475.607C174.161 475.615 170.653 473.615 168.606 469.561L168.159 469.786L168.606 469.56L126.569 386.369C124.508 382.288 124.308 376.867 125.71 371.387C127.111 365.913 130.096 360.437 134.326 356.275L134.326 356.275L328.483 164.998L328.483 164.998C332.715 160.825 337.36 158.779 341.417 158.772C345.45 158.764 348.958 160.764 351.005 164.818L351.451 164.593L351.005 164.818L393.042 248.026Z" fill="#ADBCE7" stroke="#ADBCE7"/>
<path d="M391.27 250.496C394.232 256.36 391.795 265.899 385.838 271.763L186.909 467.728C180.952 473.608 173.692 473.608 170.731 467.744L127.662 382.511C124.7 376.647 127.137 367.108 133.094 361.244L332.023 165.279C337.98 159.399 345.223 159.382 348.201 165.263L365.987 200.447C366.749 201.966 366.867 204.024 366.326 206.213C365.361 208.843 365.361 211.032 366.106 212.486C366.85 213.972 368.374 214.691 370.438 214.348C372.08 214.331 373.45 215.197 374.212 216.716L391.27 250.496Z" fill="white"/>
<path d="M405.098 260.868C405.098 260.558 405.098 260.248 405.081 259.937C405.064 259.562 405.047 259.186 405.013 258.827C404.996 258.647 404.996 258.451 404.979 258.255C404.962 258.141 404.945 258.026 404.928 257.896C404.894 257.585 404.844 257.291 404.793 256.997C404.759 256.801 404.742 256.605 404.708 256.409C404.674 256.262 404.641 256.115 404.607 255.968C404.573 255.805 404.522 255.641 404.488 255.478C404.454 255.347 404.421 255.217 404.387 255.086C404.285 254.71 404.167 254.351 404.031 253.992V253.975C404.031 253.959 404.014 253.943 404.014 253.926C403.896 253.632 403.794 253.322 403.659 253.028C403.557 252.783 403.439 252.554 403.321 252.309L361.284 169.101C361.25 169.052 361.233 169.003 361.199 168.938C361.064 168.677 360.912 168.415 360.759 168.17C360.607 167.925 360.455 167.697 360.302 167.468C360.286 167.435 360.252 167.403 360.235 167.37C360.218 167.337 360.184 167.305 360.167 167.272C360.066 167.125 359.947 166.962 359.829 166.831C359.659 166.635 359.507 166.439 359.338 166.243C359.236 166.129 359.118 166.014 359.016 165.9C358.983 165.867 358.966 165.834 358.932 165.802C358.898 165.769 358.864 165.72 358.813 165.687C358.627 165.508 358.441 165.344 358.255 165.197C358.052 165.034 357.866 164.887 357.663 164.74C357.629 164.724 357.612 164.707 357.578 164.691C357.544 164.675 357.527 164.658 357.493 164.642C357.341 164.544 357.189 164.43 357.036 164.332C356.799 164.185 356.579 164.054 356.326 163.94C356.207 163.874 356.089 163.825 355.97 163.776L346.172 159.252C346.697 159.497 347.204 159.791 347.695 160.117C347.729 160.134 347.746 160.15 347.78 160.183C348.253 160.509 348.71 160.885 349.133 161.31C349.167 161.343 349.184 161.375 349.218 161.392C349.624 161.8 350.013 162.257 350.386 162.764C350.403 162.796 350.436 162.829 350.453 162.862C350.826 163.384 351.181 163.956 351.503 164.593L393.539 247.801C393.793 248.323 394.03 248.846 394.233 249.402C394.233 249.418 394.25 249.434 394.25 249.451C394.436 249.941 394.571 250.447 394.707 250.97C394.758 251.133 394.791 251.296 394.825 251.46C394.91 251.803 394.961 252.146 395.028 252.505C395.079 252.799 395.13 253.093 395.164 253.404C395.198 253.714 395.231 254.008 395.248 254.318C395.282 254.694 395.299 255.053 395.316 255.429C395.333 255.739 395.333 256.05 395.333 256.36C395.333 256.736 395.316 257.111 395.299 257.503C395.282 257.895 395.248 258.304 395.214 258.696C395.164 259.186 395.096 259.676 395.028 260.166C394.995 260.411 394.961 260.656 394.927 260.885C394.808 261.587 394.656 262.306 394.47 263.025C394.47 263.057 394.453 263.09 394.453 263.106C394.436 263.139 394.436 263.188 394.419 263.221C394.25 263.858 394.064 264.495 393.861 265.132C393.827 265.246 393.776 265.344 393.742 265.458C393.556 265.997 393.37 266.52 393.167 267.043C393.116 267.19 393.048 267.32 392.998 267.467C392.761 268.056 392.507 268.644 392.219 269.215C392.185 269.297 392.152 269.362 392.101 269.444C391.796 270.048 391.492 270.653 391.153 271.257C391.136 271.29 391.119 271.322 391.102 271.355C390.747 271.976 390.375 272.58 389.985 273.185C389.968 273.217 389.935 273.25 389.918 273.283C389.528 273.871 389.122 274.442 388.699 275.014C388.665 275.063 388.632 275.112 388.598 275.161C388.175 275.7 387.751 276.239 387.295 276.762C387.244 276.811 387.193 276.876 387.142 276.925C386.668 277.464 386.195 277.971 385.687 278.477L191.53 469.753C185.523 475.667 178.601 477.463 173.524 475.127L183.323 479.652C188.399 481.988 195.321 480.207 201.329 474.278L395.485 283.002C395.553 282.936 395.621 282.871 395.688 282.789C395.959 282.512 396.23 282.234 396.484 281.956C396.636 281.793 396.788 281.613 396.941 281.45C396.991 281.384 397.042 281.335 397.093 281.286C397.144 281.237 397.178 281.188 397.228 281.139C397.465 280.862 397.702 280.584 397.922 280.29C398.075 280.094 398.227 279.898 398.379 279.686C398.413 279.637 398.447 279.588 398.481 279.539C398.514 279.506 398.548 279.457 398.565 279.424C398.785 279.13 398.988 278.836 399.191 278.542C399.361 278.297 399.53 278.052 399.682 277.807C399.699 277.775 399.733 277.742 399.75 277.709C399.767 277.693 399.784 277.66 399.801 277.644C400.004 277.333 400.207 277.023 400.393 276.696C400.562 276.419 400.714 276.141 400.867 275.88C400.884 275.847 400.901 275.814 400.918 275.798C400.934 275.782 400.934 275.765 400.951 275.733C401.138 275.39 401.324 275.047 401.51 274.687C401.628 274.459 401.747 274.214 401.865 273.969C401.899 273.887 401.95 273.822 401.984 273.74C402.001 273.691 402.034 273.642 402.068 273.577C402.254 273.185 402.424 272.793 402.593 272.4C402.661 272.253 402.711 272.123 402.762 271.976C402.813 271.845 402.881 271.698 402.931 271.567C402.999 271.404 403.067 271.257 403.118 271.094C403.253 270.718 403.388 270.342 403.507 269.983C403.541 269.869 403.591 269.771 403.625 269.656C403.642 269.624 403.642 269.591 403.659 269.558C403.845 268.97 404.014 268.366 404.167 267.778C404.184 267.729 404.201 267.68 404.201 267.631C404.201 267.614 404.201 267.582 404.217 267.565C404.404 266.847 404.556 266.128 404.674 265.409C404.725 265.164 404.742 264.919 404.776 264.674C404.844 264.184 404.928 263.694 404.962 263.204C404.962 263.123 404.996 263.041 404.996 262.959C405.013 262.796 405.03 262.649 405.03 262.485C405.047 262.322 405.03 262.175 405.047 262.012C405.081 261.636 405.098 261.26 405.098 260.868Z" fill="#7183CC"/>
<path d="M200.877 3.62426L189.539 12.3469L190.859 11.1708L202.197 2.44818L200.877 3.62426ZM176.322 1.71313L164.983 10.4357L164.29 12.1182L175.628 3.39558L176.322 1.71313ZM154.22 10.3377L142.882 19.0603V21.0858L154.22 12.3632V10.3377ZM138.516 27.3419L127.178 36.0645L127.871 38.1553L139.21 29.4327L138.516 27.3419ZM131.104 50.6185L119.765 59.3411L121.085 61.2522L132.424 52.5296L131.104 50.6185ZM132.931 77.407L121.593 86.1296L123.353 87.6161L134.691 78.8934L132.931 77.407ZM186.137 146.583L174.799 155.306L176.542 154.783L187.88 146.061L186.137 146.583ZM143.728 104.441L132.39 113.163L134.37 114.045L145.708 105.323L143.728 104.441ZM162.174 128.452L150.836 137.175L152.85 137.371L164.188 128.648L162.174 128.452Z" fill="white"/>
<path d="M283.92 105.649L272.582 114.372L271.008 115.237L282.346 106.515L283.92 105.649ZM275.577 129.628L264.239 138.351L266.168 138.187L277.506 129.465L275.577 129.628ZM260.566 146.681L249.228 155.404L251.276 155.976L262.614 147.253L260.566 146.681ZM239.142 155.649L227.804 164.372L229.699 165.58L241.037 156.858L239.142 155.649ZM213.893 155.42L202.555 164.143L204.128 165.874L215.467 157.152L213.893 155.42ZM134.694 78.8933L123.355 87.6159L122.34 89.1023L133.678 80.3798L134.694 78.8933ZM187.882 146.044L176.544 154.767L177.543 156.776L188.881 148.053L187.882 146.044ZM145.727 105.322L134.389 114.045L134.034 115.94L145.372 107.217L145.727 105.322ZM164.19 128.648L152.852 137.371L153.207 139.461L164.546 130.739L164.19 128.648Z" fill="white"/>
<path d="M263.067 146.894L251.729 155.616C251.576 155.731 251.424 155.861 251.255 155.976L262.593 147.253C262.762 147.139 262.915 147.008 263.067 146.894Z" fill="#69B6C3"/>
<path d="M138.517 27.3417L127.179 36.0643C130.648 30.0042 135.115 24.9405 140.362 20.8896L151.7 12.167C150.38 13.1797 149.128 14.2578 147.909 15.3849C144.271 18.8151 141.106 22.8007 138.517 27.3417ZM256.91 150.945C256.148 151.369 255.37 151.778 254.574 152.17C254.371 152.268 254.168 152.382 253.965 152.48C253.018 152.937 252.053 153.362 251.088 153.754C250.851 153.852 250.614 153.934 250.378 154.032C249.633 154.326 248.888 154.603 248.144 154.865C247.822 154.979 247.484 155.094 247.162 155.192C246.468 155.42 245.758 155.633 245.047 155.829C244.742 155.91 244.438 156.008 244.116 156.09C243.135 156.351 242.136 156.596 241.121 156.809C241.104 156.809 241.07 156.825 241.053 156.825L229.715 165.548C229.715 165.548 229.715 165.548 229.732 165.548C229.748 165.548 229.765 165.548 229.765 165.531C230.781 165.319 231.779 165.074 232.778 164.813C232.879 164.78 232.981 164.764 233.082 164.747C233.285 164.682 233.488 164.617 233.708 164.551C234.419 164.355 235.13 164.143 235.824 163.914C236.01 163.849 236.179 163.816 236.365 163.751C236.518 163.702 236.67 163.636 236.822 163.587C237.584 163.326 238.328 163.048 239.073 162.754C239.259 162.689 239.445 162.624 239.615 162.558C239.665 162.542 239.716 162.509 239.784 162.493C240.765 162.085 241.73 161.66 242.661 161.219C242.711 161.186 242.779 161.17 242.83 161.137C242.982 161.056 243.135 160.974 243.27 160.909C244.065 160.517 244.827 160.108 245.605 159.684C245.758 159.602 245.91 159.536 246.062 159.438C246.181 159.373 246.299 159.291 246.418 159.226C247.382 158.654 248.347 158.083 249.261 157.446L260.599 148.723C259.668 149.344 258.721 149.932 257.756 150.504C257.451 150.651 257.181 150.798 256.91 150.945ZM150.837 137.175L162.175 128.452C161.515 127.799 160.889 127.145 160.246 126.476C159.874 126.1 159.518 125.708 159.163 125.316C158.757 124.875 158.351 124.45 157.961 124.009C157.606 123.617 157.251 123.225 156.912 122.817C156.591 122.457 156.286 122.098 155.981 121.739C154.898 120.481 153.849 119.207 152.834 117.916C152.665 117.704 152.512 117.492 152.343 117.263C151.548 116.217 150.752 115.172 149.991 114.11C149.788 113.833 149.602 113.571 149.398 113.294C148.586 112.134 147.791 110.974 147.029 109.798C146.471 108.932 145.912 108.067 145.388 107.201L134.049 115.923C134.557 116.74 135.065 117.557 135.589 118.374C135.623 118.423 135.657 118.472 135.691 118.521C136.452 119.697 137.248 120.856 138.06 122.016C138.128 122.114 138.195 122.229 138.263 122.327C138.382 122.506 138.517 122.67 138.635 122.833C139.397 123.895 140.175 124.94 140.988 125.985C141.106 126.133 141.225 126.296 141.343 126.459C141.394 126.525 141.445 126.574 141.495 126.639C142.511 127.929 143.56 129.203 144.643 130.461C144.745 130.592 144.846 130.722 144.965 130.853C145.168 131.082 145.371 131.311 145.574 131.539C145.929 131.931 146.268 132.323 146.623 132.715C147.012 133.156 147.418 133.597 147.825 134.022C148.18 134.414 148.552 134.79 148.908 135.182C149.077 135.361 149.229 135.541 149.398 135.704C149.889 136.211 150.363 136.701 150.837 137.175ZM131.105 50.6183C131.172 49.9813 131.274 49.3442 131.359 48.7072C131.562 47.3188 131.799 45.9303 132.086 44.5582C132.137 44.3296 132.188 44.1172 132.239 43.8885C132.56 42.4511 132.899 41.03 133.305 39.6252C134.354 36.048 135.691 32.6994 137.282 29.5959L125.943 38.3185C124.353 41.4383 123.016 44.7706 121.966 48.3478C121.56 49.7526 121.205 51.1737 120.9 52.6111C120.849 52.8398 120.799 53.0685 120.748 53.2808C120.46 54.6529 120.223 56.0413 120.02 57.4298C120.003 57.5605 119.969 57.6748 119.953 57.8055C119.885 58.3119 119.817 58.8182 119.766 59.3409C119.766 59.3409 119.766 59.3409 119.766 59.3573L131.105 50.6183ZM237.059 157.544C236.332 157.642 235.587 157.74 234.842 157.821C234.47 157.854 234.115 157.903 233.742 157.936C232.964 158.001 232.185 158.05 231.39 158.099C231.085 158.115 230.764 158.132 230.459 158.148C229.342 158.197 228.225 158.213 227.109 158.197C226.922 158.197 226.753 158.181 226.567 158.181C225.585 158.164 224.587 158.132 223.589 158.066C223.233 158.05 222.895 158.017 222.539 158.001C221.541 157.919 220.526 157.838 219.51 157.723C219.256 157.691 219.002 157.674 218.732 157.642C217.649 157.511 216.566 157.348 215.482 157.168L204.144 165.891C205.227 166.07 206.327 166.234 207.393 166.364C207.461 166.381 207.546 166.381 207.613 166.397C207.799 166.413 207.986 166.43 208.155 166.446C209.17 166.56 210.186 166.658 211.201 166.724C211.387 166.74 211.573 166.773 211.776 166.773C211.929 166.789 212.098 166.789 212.25 166.789C213.249 166.854 214.247 166.887 215.246 166.903C215.398 166.903 215.533 166.92 215.686 166.92C215.719 166.92 215.753 166.92 215.787 166.92C216.921 166.936 218.038 166.903 219.138 166.871C219.222 166.871 219.307 166.871 219.392 166.871C219.612 166.854 219.849 166.838 220.069 166.822C220.864 166.773 221.642 166.724 222.421 166.658C222.59 166.642 222.776 166.642 222.962 166.626C223.149 166.609 223.335 166.577 223.521 166.56C224.265 166.479 225.01 166.381 225.738 166.283C225.958 166.25 226.195 166.234 226.415 166.201C226.652 166.168 226.889 166.119 227.125 166.087L238.464 157.364C237.99 157.429 237.533 157.478 237.059 157.544ZM132.391 74.9403C132.137 73.6826 131.9 72.4248 131.697 71.1671C131.663 70.9874 131.646 70.8077 131.629 70.6443C131.443 69.4519 131.291 68.2595 131.172 67.0671C131.139 66.7568 131.105 66.4301 131.071 66.1197C130.936 64.6823 130.834 63.2448 130.766 61.8237C130.749 61.5951 130.749 61.3827 130.749 61.154C130.699 59.4552 130.682 57.7565 130.749 56.074C130.783 55.1756 130.817 54.2936 130.885 53.3952L119.546 62.1178C119.479 62.9672 119.445 63.8002 119.411 64.6496C119.411 64.6986 119.411 64.7476 119.411 64.7966C119.36 66.4791 119.36 68.1779 119.411 69.8766C119.411 70.0073 119.411 70.138 119.411 70.285C119.411 70.3667 119.428 70.4647 119.428 70.5627C119.496 71.9838 119.597 73.4212 119.733 74.8586C119.749 74.9893 119.75 75.12 119.766 75.2507C119.783 75.4304 119.817 75.6264 119.834 75.8224C119.969 77.0148 120.122 78.1909 120.291 79.3833C120.308 79.514 120.325 79.6446 120.342 79.7917C120.342 79.8407 120.359 79.8733 120.359 79.9223C120.562 81.1801 120.799 82.4378 121.053 83.6956C121.069 83.8099 121.086 83.9243 121.12 84.0386C121.273 84.741 121.425 85.4434 121.594 86.1458L132.932 77.4232C132.729 76.5738 132.56 75.757 132.391 74.9403ZM209.593 155.943C209.069 155.812 208.544 155.665 208.019 155.535C207.563 155.42 207.106 155.306 206.649 155.175C206.124 155.028 205.6 154.865 205.075 154.701C204.618 154.554 204.161 154.44 203.704 154.293C203.603 154.26 203.484 154.211 203.383 154.179C202.333 153.836 201.284 153.476 200.218 153.084C199.846 152.954 199.49 152.807 199.118 152.676C198.289 152.366 197.476 152.039 196.647 151.696C196.258 151.533 195.869 151.369 195.48 151.206C194.735 150.879 193.973 150.553 193.229 150.193C192.873 150.03 192.518 149.866 192.163 149.703C191.063 149.18 189.963 148.641 188.863 148.07L177.524 156.792C178.624 157.364 179.724 157.903 180.824 158.426C181.18 158.589 181.535 158.752 181.89 158.916C182.652 159.259 183.397 159.602 184.141 159.928C184.31 159.994 184.48 160.076 184.632 160.157C184.852 160.255 185.072 160.337 185.292 160.419C186.121 160.762 186.95 161.088 187.78 161.399C188.135 161.529 188.507 161.676 188.863 161.807C189.912 162.199 190.978 162.558 192.027 162.901C192.112 162.934 192.213 162.967 192.298 162.999C192.315 162.999 192.332 163.016 192.349 163.016C192.806 163.163 193.263 163.293 193.72 163.424C194.244 163.587 194.769 163.751 195.293 163.898C195.75 164.028 196.207 164.143 196.664 164.257C197.172 164.388 197.663 164.535 198.17 164.649C198.187 164.649 198.221 164.666 198.238 164.666C199.236 164.911 200.235 165.139 201.233 165.352L212.572 156.629C211.59 156.417 210.592 156.188 209.593 155.943ZM142.308 101.876C141.699 100.732 141.106 99.589 140.531 98.4456C140.429 98.2333 140.328 98.0209 140.226 97.8086C139.769 96.8775 139.329 95.9464 138.923 94.999C138.754 94.607 138.585 94.2313 138.415 93.8393C138.077 93.0716 137.756 92.2875 137.434 91.5035C137.265 91.0951 137.112 90.7031 136.943 90.2947C136.622 89.478 136.317 88.6449 136.012 87.8119C135.894 87.4852 135.759 87.1422 135.657 86.8155C135.251 85.6557 134.879 84.496 134.523 83.3362C134.219 82.3562 133.931 81.3598 133.66 80.3634L122.322 89.086C122.576 90.0497 122.863 91.0134 123.151 91.9772C123.151 92.0098 123.168 92.0262 123.185 92.0588C123.54 93.2186 123.929 94.3783 124.319 95.5381C124.353 95.6197 124.369 95.7014 124.403 95.7831C124.488 96.0281 124.589 96.2895 124.691 96.5345C124.996 97.3675 125.3 98.1843 125.622 99.0173C125.689 99.197 125.757 99.3603 125.825 99.54C125.909 99.7687 126.011 99.9974 126.113 100.226C126.434 101.01 126.756 101.794 127.094 102.562C127.196 102.807 127.297 103.052 127.399 103.297C127.466 103.444 127.534 103.575 127.602 103.722C128.025 104.669 128.465 105.6 128.922 106.531C129.006 106.711 129.074 106.891 129.176 107.054C129.193 107.087 129.209 107.119 129.226 107.152C129.802 108.312 130.394 109.455 131.003 110.582C131.054 110.664 131.088 110.762 131.139 110.843C131.562 111.611 131.985 112.395 132.425 113.147L143.763 104.424C143.255 103.591 142.782 102.725 142.308 101.876ZM181.417 143.757C181.214 143.627 180.994 143.496 180.79 143.365C179.318 142.434 177.897 141.454 176.475 140.458C176.221 140.278 175.967 140.098 175.697 139.902C174.309 138.906 172.938 137.861 171.584 136.799C171.364 136.619 171.144 136.44 170.924 136.26C169.554 135.149 168.2 134.022 166.88 132.846C166.084 132.144 165.306 131.441 164.544 130.723L153.206 139.445C153.951 140.147 154.712 140.834 155.474 141.52C155.491 141.536 155.525 141.552 155.541 141.585C156.861 142.761 158.215 143.888 159.586 144.999C159.806 145.178 160.026 145.358 160.246 145.538C161.583 146.6 162.954 147.629 164.358 148.641C164.612 148.821 164.866 149.001 165.12 149.18C166.541 150.177 167.963 151.157 169.435 152.088C169.638 152.219 169.858 152.349 170.061 152.48C171.601 153.46 173.175 154.391 174.783 155.29L186.121 146.567C184.53 145.685 182.957 144.737 181.417 143.757Z" fill="url(#paint0_linear_44_1090)"/>
<path d="M133.307 39.6253C134.357 36.048 135.693 32.6995 137.284 29.5959L139.213 29.4326L138.52 27.3418C142.09 21.102 146.71 15.9076 152.176 11.8077L154.207 12.3631V10.3376C159.978 6.43366 166.578 3.7058 173.719 2.20303L175.615 3.39545L176.308 1.713C183.535 0.520588 191.285 0.553249 199.29 1.90901L200.847 3.62413L202.167 2.44805C209.951 4.06516 217.922 6.87468 225.876 11.0073L226.874 13.0001L228.617 12.4774C236.503 16.8714 243.729 22.2454 250.194 28.3055L250.549 30.38L252.563 30.5923C259.062 37.0608 264.714 44.2479 269.368 51.8271L269.012 53.7056L270.992 54.604C275.443 62.3628 278.861 70.4811 281.078 78.681L280.046 80.1511L281.823 81.6538C283.718 89.7067 284.446 97.7923 283.887 105.649L282.314 106.515L283.634 108.426C283.211 112.167 282.5 115.842 281.451 119.419C280.401 122.996 279.064 126.345 277.474 129.448L275.545 129.612L276.238 131.703C272.668 137.926 268.048 143.137 262.581 147.237L260.534 146.665V148.69C254.763 152.594 248.163 155.322 241.005 156.825L239.109 155.616L238.416 157.315C231.189 158.507 223.439 158.475 215.434 157.119L213.86 155.388L212.557 156.58C204.773 154.963 196.802 152.137 188.848 148.021L187.85 146.012L186.107 146.534C178.238 142.124 170.995 136.766 164.53 130.706L164.175 128.615L162.161 128.419C155.662 121.951 150.01 114.764 145.356 107.185L145.712 105.29L143.732 104.408C139.298 96.6652 135.88 88.547 133.663 80.3307L134.678 78.8443L132.918 77.3579C131.023 69.305 130.295 61.2031 130.853 53.3626L132.427 52.4968L131.107 50.5857C131.547 46.8778 132.258 43.2025 133.307 39.6253Z" fill="url(#paint1_linear_44_1090)"/>
<g opacity="0.5">
<path d="M213.336 35.46L208.987 50.6347C194.01 45.1463 181.859 50.3407 177.798 64.5353C173.753 78.6319 180.269 93.6107 193.925 103.232L189.813 117.622L202.048 124.107L206.195 109.618C214.994 112.722 222.593 112.265 228.093 108.475L218.819 95.4891C214.774 98.0536 209.613 97.6616 203.775 94.5581C195.787 90.3274 191.793 81.6048 194.213 73.1272C196.599 64.7803 203.859 62.1178 211.847 66.3484C211.965 66.4138 212.101 66.4791 212.219 66.5444C217.668 69.4356 221.307 73.8133 223.337 78.8443L236.487 77.4232C234.033 69.746 228.702 62.6569 221.205 57.2175L225.571 41.9447L213.336 35.46Z" fill="white"/>
</g>
<path opacity="0.5" d="M191.115 135.002C157.71 117.002 137.825 77.4887 146.794 46.8943C155.763 16.3162 190.252 6.05813 223.658 24.0587C257.064 42.0429 276.949 81.5723 267.979 112.15C259.01 142.745 224.521 152.987 191.115 135.002ZM222.457 28.2076C191.555 11.5628 159.639 21.0368 151.33 49.3444C143.02 77.6357 161.433 114.209 192.334 130.853C223.235 147.498 255.135 138.024 263.444 109.733C271.753 81.4253 253.358 44.8525 222.457 28.2076Z" fill="white"/>
<path d="M244.522 343.577L253.796 335.508L252.73 336.586L243.456 344.655L244.522 343.577ZM265.744 343.985L275.018 335.916L275.525 334.43L266.251 342.499L265.744 343.985ZM284.291 335.442L293.565 327.373L293.464 325.625L284.19 333.695L284.291 335.442ZM296.882 320.039L306.156 311.97L305.445 310.206L296.171 318.275L296.882 320.039ZM301.993 299.637L311.266 291.568L310.014 289.984L300.74 298.053L301.993 299.637ZM298.98 276.687L308.254 268.618L306.646 267.426L297.373 275.495L298.98 276.687ZM249.481 219.86L258.755 211.791L257.282 212.33L248.009 220.399L249.481 219.86ZM288.217 253.982L297.491 245.913L295.731 245.26L286.457 253.329L288.217 253.982ZM271.058 234.25L280.331 226.181L278.588 226.116L269.315 234.185L271.058 234.25Z" fill="url(#paint2_linear_44_1090)"/>
<path d="M167.572 259.994L176.846 251.925L178.149 251.091L168.875 259.161L167.572 259.994ZM173.461 238.939L182.735 230.869L181.093 231.114L171.82 239.184L173.461 238.939ZM185.46 223.519L194.733 215.45L192.94 215.074L183.666 223.143L185.46 223.519ZM203.381 214.731L212.655 206.662L210.962 205.714L201.689 213.784L203.381 214.731ZM225.11 213.653L234.384 205.584L232.945 204.163L223.672 212.232L225.11 213.653ZM297.388 275.495L306.662 267.426L307.457 266.103L298.183 274.172L297.388 275.495ZM248.007 220.399L257.28 212.33L256.316 210.664L247.042 218.733L248.007 220.399ZM286.473 253.313L295.746 245.244L295.949 243.594L286.676 251.663L286.473 253.313ZM269.313 234.185L278.586 226.116L278.163 224.336L268.89 232.405L269.313 234.185Z" fill="#BB3877"/>
<path d="M183.278 223.47L192.552 215.4C192.671 215.286 192.806 215.188 192.941 215.074L183.668 223.143C183.532 223.241 183.397 223.355 183.278 223.47Z" fill="white"/>
<path d="M296.881 320.039L306.155 311.97C303.498 317.36 299.928 321.95 295.629 325.691L286.355 333.76C287.438 332.829 288.454 331.832 289.435 330.787C292.38 327.667 294.884 324.074 296.881 320.039ZM188.355 219.664C188.981 219.255 189.641 218.863 190.284 218.488C190.453 218.39 190.622 218.292 190.792 218.194C191.587 217.753 192.382 217.344 193.195 216.952C193.398 216.854 193.601 216.773 193.787 216.675C194.413 216.381 195.039 216.103 195.665 215.841C195.936 215.727 196.224 215.613 196.495 215.515C197.087 215.286 197.679 215.057 198.288 214.861C198.542 214.763 198.813 214.682 199.067 214.584C199.896 214.306 200.742 214.045 201.605 213.816C201.622 213.816 201.639 213.8 201.656 213.8L210.93 205.73C210.93 205.73 210.93 205.73 210.913 205.73C210.896 205.73 210.896 205.73 210.879 205.747C210.016 205.975 209.17 206.237 208.324 206.515C208.239 206.547 208.154 206.564 208.07 206.596C207.884 206.662 207.714 206.727 207.545 206.792C206.936 207.005 206.344 207.217 205.751 207.446C205.599 207.511 205.447 207.56 205.294 207.609C205.159 207.658 205.041 207.723 204.922 207.772C204.279 208.034 203.653 208.311 203.044 208.605C202.891 208.671 202.739 208.736 202.587 208.801C202.536 208.818 202.502 208.85 202.451 208.867C201.639 209.259 200.827 209.683 200.048 210.108C199.998 210.141 199.947 210.157 199.913 210.19C199.795 210.255 199.659 210.337 199.541 210.418C198.881 210.794 198.238 211.186 197.611 211.595C197.493 211.676 197.358 211.742 197.239 211.823C197.138 211.889 197.053 211.97 196.951 212.036C196.156 212.575 195.361 213.13 194.599 213.702L185.325 221.771C186.087 221.183 186.882 220.627 187.678 220.105C187.915 219.958 188.135 219.811 188.355 219.664ZM280.348 226.181L271.074 234.25C271.666 234.773 272.258 235.312 272.834 235.851C273.172 236.162 273.511 236.472 273.832 236.799C274.205 237.158 274.577 237.501 274.932 237.86C275.254 238.187 275.575 238.497 275.897 238.824C276.185 239.118 276.472 239.412 276.76 239.706C277.758 240.735 278.723 241.781 279.671 242.842C279.823 243.022 279.975 243.202 280.128 243.365C280.872 244.214 281.6 245.08 282.311 245.962C282.497 246.191 282.683 246.403 282.869 246.632C283.631 247.579 284.375 248.543 285.103 249.523C285.628 250.242 286.152 250.944 286.66 251.679L295.934 243.61C295.46 242.924 294.969 242.254 294.478 241.585C294.445 241.536 294.411 241.503 294.377 241.47C293.649 240.49 292.905 239.526 292.143 238.579C292.075 238.497 292.008 238.399 291.94 238.318C291.821 238.171 291.703 238.04 291.584 237.893C290.874 237.027 290.146 236.162 289.401 235.296C289.283 235.165 289.181 235.034 289.08 234.904C289.029 234.855 288.995 234.806 288.945 234.757C287.997 233.695 287.032 232.65 286.034 231.621C285.932 231.523 285.848 231.408 285.746 231.31C285.56 231.114 285.374 230.935 285.188 230.739C284.866 230.412 284.544 230.085 284.223 229.775C283.851 229.415 283.495 229.056 283.123 228.713C282.785 228.403 282.463 228.092 282.125 227.782C281.972 227.635 281.82 227.488 281.668 227.357C281.228 226.965 280.788 226.573 280.348 226.181ZM301.992 299.637C301.958 300.193 301.924 300.748 301.874 301.287C301.772 302.496 301.654 303.705 301.484 304.897C301.451 305.093 301.417 305.289 301.4 305.485C301.214 306.726 300.994 307.984 300.706 309.209C299.995 312.345 299.031 315.286 297.829 318.046L307.103 309.977C308.304 307.216 309.269 304.276 309.98 301.14C310.25 299.915 310.487 298.673 310.673 297.432C310.707 297.236 310.741 297.04 310.758 296.844C310.927 295.652 311.063 294.443 311.147 293.234C311.164 293.12 311.181 293.022 311.181 292.907C311.215 292.466 311.249 292.025 311.266 291.584L301.992 299.637ZM205.075 212.999C205.701 212.869 206.327 212.754 206.97 212.656C207.274 212.607 207.596 212.558 207.918 212.509C208.578 212.411 209.254 212.33 209.931 212.248C210.202 212.215 210.456 212.183 210.727 212.15C211.674 212.052 212.639 211.987 213.604 211.938C213.756 211.938 213.908 211.938 214.077 211.921C214.924 211.889 215.787 211.872 216.65 211.872C216.954 211.872 217.259 211.872 217.564 211.889C218.427 211.905 219.307 211.938 220.187 211.987C220.407 212.003 220.627 212.003 220.864 212.019C221.794 212.085 222.742 212.166 223.69 212.264L232.963 204.195C232.016 204.097 231.068 204.015 230.137 203.95C230.07 203.95 230.002 203.934 229.951 203.934C229.799 203.917 229.63 203.934 229.477 203.917C228.597 203.868 227.717 203.836 226.854 203.819C226.685 203.819 226.533 203.803 226.364 203.803C226.228 203.803 226.093 203.819 225.957 203.819C225.094 203.819 224.231 203.836 223.385 203.868C223.267 203.868 223.131 203.868 223.013 203.868C222.979 203.868 222.945 203.868 222.928 203.868C221.964 203.917 220.999 203.983 220.051 204.081C219.984 204.081 219.899 204.097 219.831 204.097C219.628 204.113 219.442 204.146 219.256 204.179C218.579 204.26 217.902 204.342 217.242 204.44C217.09 204.456 216.937 204.473 216.785 204.505C216.616 204.538 216.464 204.571 216.311 204.587C215.668 204.685 215.042 204.816 214.416 204.93C214.23 204.963 214.027 204.995 213.841 205.044C213.638 205.093 213.434 205.126 213.231 205.175L203.958 213.244C204.279 213.146 204.685 213.081 205.075 212.999ZM299.572 278.778C299.86 279.84 300.131 280.918 300.367 281.996C300.401 282.143 300.435 282.29 300.469 282.453C300.689 283.466 300.892 284.479 301.061 285.508C301.112 285.769 301.163 286.047 301.197 286.308C301.4 287.533 301.552 288.758 301.687 289.984C301.704 290.18 301.721 290.359 301.738 290.555C301.874 292.009 301.975 293.463 302.026 294.917C302.043 295.684 302.06 296.452 302.06 297.22L311.334 289.151C311.334 288.415 311.333 287.697 311.317 286.962C311.317 286.929 311.317 286.88 311.317 286.847C311.283 285.394 311.181 283.94 311.029 282.486C311.012 282.372 311.012 282.257 311.012 282.143C311.012 282.061 310.995 281.996 310.978 281.914C310.843 280.689 310.69 279.464 310.487 278.239C310.47 278.125 310.454 278.027 310.437 277.912C310.403 277.749 310.369 277.586 310.335 277.439C310.166 276.426 309.963 275.413 309.743 274.401C309.726 274.286 309.709 274.172 309.675 274.057C309.658 274.025 309.658 273.976 309.641 273.943C309.404 272.865 309.134 271.803 308.846 270.742C308.812 270.644 308.795 270.546 308.778 270.448C308.609 269.843 308.44 269.255 308.254 268.651L298.98 276.72C299.2 277.39 299.386 278.092 299.572 278.778ZM228.8 212.999C229.257 213.081 229.714 213.179 230.171 213.277C230.56 213.359 230.967 213.424 231.356 213.522C231.813 213.62 232.27 213.734 232.743 213.849C233.15 213.947 233.539 214.028 233.945 214.143C234.03 214.159 234.131 214.192 234.233 214.224C235.163 214.469 236.077 214.731 237.008 215.008C237.33 215.106 237.651 215.204 237.973 215.302C238.7 215.531 239.428 215.776 240.156 216.021C240.494 216.135 240.85 216.266 241.188 216.381C241.848 216.626 242.525 216.871 243.185 217.132C243.506 217.263 243.811 217.377 244.133 217.491C245.114 217.883 246.079 218.292 247.06 218.733L256.334 210.663C255.352 210.222 254.371 209.814 253.406 209.422C253.085 209.291 252.78 209.177 252.459 209.063C251.799 208.801 251.122 208.556 250.462 208.311C250.309 208.262 250.174 208.197 250.022 208.148C249.819 208.083 249.633 208.017 249.429 207.952C248.702 207.707 247.974 207.462 247.246 207.233C246.925 207.135 246.603 207.037 246.299 206.939C245.368 206.662 244.437 206.4 243.523 206.155C243.439 206.139 243.371 206.106 243.286 206.09C243.27 206.09 243.253 206.09 243.236 206.073C242.83 205.975 242.44 205.877 242.034 205.779C241.577 205.665 241.103 205.551 240.646 205.453C240.24 205.371 239.851 205.289 239.462 205.208C239.022 205.126 238.582 205.028 238.142 204.946C238.125 204.946 238.108 204.946 238.091 204.93C237.211 204.767 236.348 204.62 235.485 204.489L226.211 212.558C227.04 212.689 227.92 212.836 228.8 212.999ZM289.588 256.122C290.18 257.07 290.755 258.033 291.297 258.997C291.398 259.177 291.5 259.356 291.584 259.536C292.024 260.32 292.448 261.088 292.871 261.888C293.04 262.215 293.209 262.542 293.361 262.852C293.7 263.505 294.021 264.159 294.326 264.812C294.495 265.155 294.647 265.498 294.817 265.825C295.138 266.511 295.443 267.213 295.748 267.916C295.866 268.193 296.001 268.471 296.12 268.749C296.526 269.729 296.915 270.709 297.288 271.689C297.609 272.522 297.897 273.355 298.184 274.204L307.458 266.135C307.187 265.319 306.9 264.502 306.595 263.685C306.578 263.669 306.578 263.636 306.561 263.62C306.189 262.64 305.8 261.66 305.394 260.68C305.36 260.614 305.343 260.549 305.309 260.484C305.224 260.271 305.123 260.059 305.021 259.847C304.717 259.144 304.412 258.458 304.091 257.756C304.023 257.609 303.955 257.462 303.887 257.315C303.803 257.119 303.701 256.939 303.6 256.743C303.278 256.09 302.957 255.436 302.635 254.783C302.534 254.587 302.432 254.374 302.331 254.162C302.263 254.048 302.195 253.933 302.144 253.803C301.738 253.019 301.298 252.235 300.858 251.451C300.774 251.304 300.706 251.157 300.621 251.01C300.604 250.977 300.587 250.944 300.571 250.928C300.012 249.964 299.454 249.017 298.861 248.053C298.811 247.988 298.777 247.906 298.726 247.841C298.32 247.204 297.914 246.55 297.491 245.913L288.217 253.982C288.691 254.685 289.148 255.404 289.588 256.122ZM253.694 222.049C253.88 222.147 254.066 222.245 254.253 222.359C255.556 223.094 256.842 223.845 258.128 224.646C258.365 224.793 258.585 224.94 258.822 225.07C260.074 225.871 261.309 226.688 262.528 227.537C262.731 227.684 262.934 227.815 263.12 227.962C264.372 228.844 265.591 229.758 266.792 230.69C267.503 231.245 268.214 231.817 268.925 232.405L278.198 224.335C277.521 223.78 276.828 223.225 276.134 222.669C276.117 222.653 276.083 222.637 276.066 222.62C274.865 221.673 273.646 220.774 272.394 219.892C272.191 219.745 272.005 219.615 271.802 219.468C270.583 218.618 269.348 217.802 268.095 217.001C267.875 216.854 267.639 216.707 267.402 216.577C266.132 215.792 264.846 215.025 263.526 214.29C263.34 214.192 263.154 214.077 262.951 213.979C261.563 213.228 260.175 212.493 258.737 211.791L249.463 219.86C250.902 220.562 252.306 221.297 253.694 222.049Z" fill="url(#paint3_linear_44_1090)"/>
<path d="M300.69 309.209C299.979 312.346 299.015 315.286 297.813 318.046L296.155 318.275L296.865 320.039C294.141 325.576 290.435 330.281 285.95 334.087L284.173 333.711L284.275 335.459C279.519 339.101 273.986 341.78 267.927 343.446L266.235 342.515L265.727 344.002C259.567 345.39 252.9 345.75 245.944 344.998L244.506 343.593L243.44 344.671C236.654 343.675 229.647 341.65 222.574 338.497L221.609 336.831L220.137 337.37C213.131 333.989 206.615 329.725 200.709 324.841L200.303 323.077L198.56 322.996C192.62 317.752 187.374 311.872 182.957 305.567L183.16 303.933L181.4 303.264C177.153 296.811 173.785 290 171.433 283.058L172.245 281.735L170.637 280.542C168.573 273.698 167.506 266.789 167.574 260.01L168.877 259.177L167.642 257.592C167.794 254.342 168.217 251.157 168.928 248.02C169.639 244.901 170.603 241.944 171.805 239.2L173.446 238.955L172.736 237.191C175.46 231.653 179.166 226.949 183.651 223.143L185.445 223.519L185.326 221.771C190.082 218.128 195.615 215.45 201.691 213.8L203.383 214.747L203.891 213.244C210.051 211.856 216.718 211.497 223.674 212.248L225.112 213.669L226.178 212.575C232.947 213.571 239.97 215.597 247.044 218.749L248.009 220.415L249.481 219.876C256.487 223.274 263.003 227.521 268.909 232.405L269.332 234.185L271.075 234.25C277.015 239.494 282.261 245.374 286.678 251.679L286.475 253.329L288.235 253.983C292.465 260.418 295.85 267.23 298.202 274.188L297.407 275.511L299.015 276.704C301.079 283.548 302.145 290.474 302.078 297.236L300.774 298.069L302.027 299.654C301.824 302.872 301.401 306.073 300.69 309.209Z" fill="url(#paint4_linear_44_1090)"/>
<g opacity="0.5">
<path d="M237.43 240.164L234.418 253.411C221.269 249.36 211.064 254.391 208.255 266.789C205.463 279.105 211.775 291.699 224.01 299.36L221.167 311.921L232.015 316.952L234.892 304.293C242.609 306.563 249.124 305.828 253.676 302.316L245.063 291.568C241.712 293.953 237.244 293.855 232.066 291.437C224.992 288.154 221.134 280.82 222.809 273.437C224.467 266.135 230.577 263.538 237.65 266.821C237.752 266.87 237.87 266.919 237.972 266.968C242.812 269.206 246.146 272.816 248.143 277.047L259.396 275.234C256.909 268.733 251.984 262.885 245.266 258.54L248.295 245.211L237.43 240.164Z" fill="white"/>
</g>
<path opacity="0.5" d="M245.827 230.085C275.544 243.888 294.768 276.867 288.71 303.639C282.651 330.395 253.544 340.947 223.827 327.145C194.127 313.358 174.886 280.346 180.944 253.591C187.003 226.818 216.11 216.283 245.827 230.085ZM224.639 323.518C252.122 336.276 279.063 326.524 284.682 301.761C290.3 276.998 272.497 246.469 245.015 233.712C217.532 220.954 190.607 230.706 184.989 255.453C179.354 280.216 197.157 310.745 224.639 323.518Z" fill="white"/>
<path d="M51.3307 198.559L36.6924 206.792L37.3016 205.73L51.9399 197.498L51.3307 198.559ZM35.2032 196.861L20.5648 205.093L20.4464 206.612L35.0847 198.38L35.2032 196.861ZM22.6125 204.587L7.97418 212.819L8.36338 214.632L23.0017 206.4L22.6125 204.587ZM15.7079 219.843L1.0696 228.076L1.89886 229.938L16.5372 221.705L15.7079 219.843ZM68.5413 326.589L53.903 334.821L54.9353 334.364L69.5736 326.132L68.5413 326.589ZM15.2848 240.67L0.646528 248.902L1.84804 250.617L16.4864 242.385L15.2848 240.67ZM49.7569 310.369L35.1185 318.601L36.4554 318.781L51.0938 310.548L49.7569 310.369ZM21.4448 264.649L6.8065 272.881L8.22802 274.221L22.8663 265.988L21.4448 264.649ZM33.4093 288.856L18.771 297.089L20.2264 297.889L34.8647 289.657L33.4093 288.856Z" fill="#8384CA"/>
<path d="M110.341 333.793L95.7023 342.025C94.2639 342.826 92.7239 343.495 91.0824 344.002L105.721 335.769C107.362 335.263 108.902 334.593 110.341 333.793ZM29.0429 199.278L14.4046 207.511C11.9508 208.883 9.8185 210.68 7.9739 212.836L22.6122 204.603C24.4399 202.447 26.5891 200.65 29.0429 199.278ZM89.3562 336.063L74.7179 344.296C79.9471 345.472 84.9394 345.553 89.5255 344.443L104.164 336.21C99.5777 337.321 94.5854 337.223 89.3562 336.063ZM16.7907 215.547C17.84 212.166 19.2953 209.144 21.1061 206.531C21.2584 206.318 21.4107 206.106 21.563 205.894L6.92464 214.126C6.77233 214.339 6.62004 214.551 6.46774 214.763C4.64006 217.361 3.20163 220.399 2.15241 223.78C1.72934 225.152 1.35704 226.59 1.05243 228.076L15.6908 219.843C16.0123 218.357 16.3677 216.92 16.7907 215.547ZM80.0825 332.976C76.9348 331.604 73.7533 329.921 70.5718 327.929L55.9335 336.161C59.115 338.154 62.2965 339.853 65.4441 341.208C67.9149 342.27 70.3518 343.152 72.7549 343.789L87.3932 335.557C84.9901 334.92 82.5532 334.054 80.0825 332.976ZM14.9461 237.615C14.5738 233.385 14.5569 229.383 14.8784 225.609C14.9969 224.319 15.1492 223.061 15.3353 221.836L0.697013 230.069C0.493938 231.294 0.34165 232.552 0.240113 233.842C-0.0983457 237.599 -0.0814084 241.617 0.307819 245.848C0.392433 246.861 0.510863 247.873 0.646246 248.919L15.2846 240.686C15.1492 239.641 15.0477 238.612 14.9461 237.615ZM68.5241 326.573C65.0718 324.27 61.6365 321.607 58.2519 318.634C56.035 316.69 53.8519 314.616 51.7196 312.411L37.0813 320.643C39.2305 322.849 41.4136 324.923 43.6305 326.867C47.015 329.84 50.4504 332.486 53.9027 334.805C53.9027 334.805 53.9027 334.805 53.9196 334.805L68.5241 326.573C68.5241 326.589 68.5241 326.589 68.5241 326.573ZM18.3138 255.175C17.1461 251.059 16.2492 247.04 15.6569 243.169L1.01855 251.402C1.62778 255.273 2.50778 259.291 3.67546 263.407C4.55546 266.511 5.60469 269.68 6.80622 272.881L21.4445 264.649C20.243 261.447 19.1938 258.278 18.3138 255.175ZM47.9966 308.425C43.6474 303.558 39.5013 298.183 35.6767 292.385C35.4567 292.042 35.2367 291.699 34.9998 291.356L20.3614 299.588C20.5814 299.931 20.8015 300.274 21.0384 300.617C24.863 306.416 29.0091 311.79 33.3583 316.658C33.9506 317.311 34.5429 317.965 35.1352 318.602L49.7735 310.369C49.1643 309.732 48.572 309.079 47.9966 308.425ZM27.4353 278.223C25.5737 274.564 23.9322 270.921 22.4768 267.311L7.83849 275.544C9.27694 279.154 10.9354 282.796 12.7969 286.455C14.6584 290.131 16.6553 293.659 18.7707 297.089L33.4091 288.856C31.2937 285.443 29.2968 281.898 27.4353 278.223Z" fill="url(#paint5_linear_44_1090)"/>
<path d="M111.932 254.849C113.793 258.524 115.435 262.15 116.89 265.76L116.501 267.083L117.923 268.423C120.732 275.871 122.661 283.107 123.727 289.902L122.881 290.686L124.082 292.401C124.962 299.246 124.929 305.6 124.032 311.235L122.847 311.382L123.676 313.244C122.576 318.684 120.613 323.404 117.804 327.161L116.399 326.671L116.772 328.484C113.878 331.898 110.189 334.397 105.755 335.786L104.317 334.724L104.181 336.227C99.595 337.338 94.6027 337.24 89.3735 336.08L88.0535 334.544L87.4274 335.606C81.9613 334.12 76.2752 331.522 70.606 327.962L69.5907 326.165L68.5584 326.622C62.8553 322.8 57.1692 318.03 51.737 312.46L51.1278 310.582L49.7908 310.402C44.5278 304.75 39.5525 298.38 35.034 291.389L34.9156 289.69L33.4602 288.89C31.3449 285.476 29.348 281.931 27.4864 278.256C25.6249 274.597 23.9834 270.954 22.528 267.344L22.9172 266.021L21.4957 264.682C18.6865 257.25 16.7573 249.997 15.6912 243.202L16.5373 242.418L15.3357 240.703C14.4557 233.859 14.5065 227.521 15.4034 221.869L16.5881 221.722L15.7588 219.86C16.8588 214.404 18.8219 209.7 21.6311 205.927L23.0526 206.433L22.6634 204.62C25.5741 201.206 29.2464 198.707 33.6971 197.319L35.1356 198.397L35.2541 196.878C39.8402 195.767 44.8324 195.865 50.0616 197.025L51.3985 198.576L52.0247 197.515C57.4908 199.001 63.1769 201.598 68.8461 205.175L69.8783 206.972L70.8937 206.499C76.5968 210.321 82.2829 215.09 87.7151 220.661L88.3413 222.539L89.6612 222.719C94.9243 228.37 99.9165 234.757 104.418 241.732L104.537 243.431L106.009 244.231C108.056 247.629 110.07 251.19 111.932 254.849Z" fill="url(#paint6_linear_44_1090)"/>
<path opacity="0.5" d="M104.232 256.971C88.3247 225.642 59.8773 204.423 40.8221 209.699C21.7669 214.976 19.2284 244.753 35.136 276.099C51.0435 307.445 79.4909 328.647 98.5292 323.371C117.584 318.095 120.14 288.317 104.232 256.971ZM96.38 319.124C78.7464 324.008 52.4312 304.374 37.7252 275.38C23.0022 246.387 25.3715 218.83 42.9882 213.963C60.605 209.079 86.937 228.696 101.643 257.69C116.366 286.684 113.997 314.24 96.38 319.124ZM86.9032 292.793L94.4339 307.608L87.4786 309.536L79.9987 294.818C70.8434 294.965 60.3173 286.194 53.0066 271.77C45.6451 257.265 45.6451 245.456 52.685 241.013L44.8159 225.495L51.7712 223.567L59.6912 239.183C64.8188 239.249 70.3695 242.025 75.531 247.04L73.0264 256.236C69.5403 253.214 66.0203 251.712 62.9234 252.561C62.8558 252.577 62.788 252.594 62.7203 252.626C58.185 253.884 57.8973 260.532 62.2465 269.075C66.6464 277.733 72.8234 282.698 77.3587 281.457C80.6756 280.542 82.2155 277.733 81.7248 273.11L91.7601 278.5C92.6401 285.083 90.9647 290.065 86.9032 292.793Z" fill="white"/>
<defs>
<linearGradient id="paint0_linear_44_1090" x1="137.527" y1="41.8675" x2="244.727" y2="163.886" gradientUnits="userSpaceOnUse">
<stop stop-color="#870DFF"/>
<stop offset="1" stop-color="#0CEAFF"/>
</linearGradient>
<linearGradient id="paint1_linear_44_1090" x1="207.37" y1="0.853516" x2="207.37" y2="158.175" gradientUnits="userSpaceOnUse">
<stop stop-color="#4365CB"/>
<stop offset="0.180208" stop-color="#4365CB" stop-opacity="0.819792"/>
<stop offset="1" stop-color="#4365CB" stop-opacity="0"/>
</linearGradient>
<linearGradient id="paint2_linear_44_1090" x1="278.118" y1="311.376" x2="170.837" y2="68.8242" gradientUnits="userSpaceOnUse">
<stop stop-color="#30AA64"/>
<stop offset="0.00945917" stop-color="#2CA55F"/>
<stop offset="0.0523" stop-color="#1F944F"/>
<stop offset="0.1054" stop-color="#168943"/>
<stop offset="0.1801" stop-color="#10823D"/>
<stop offset="0.3876" stop-color="#0F803B"/>
<stop offset="0.5274" stop-color="#148B43"/>
<stop offset="0.7741" stop-color="#21A957"/>
<stop offset="1" stop-color="#2FCA6E"/>
</linearGradient>
<linearGradient id="paint3_linear_44_1090" x1="201.523" y1="228.744" x2="290.684" y2="336.573" gradientUnits="userSpaceOnUse">
<stop stop-color="#870DFF"/>
<stop offset="1" stop-color="#0CEAFF"/>
</linearGradient>
<linearGradient id="paint4_linear_44_1090" x1="234.826" y1="211.864" x2="234.826" y2="345.383" gradientUnits="userSpaceOnUse">
<stop stop-color="#4365CB"/>
<stop offset="1" stop-color="white"/>
</linearGradient>
<linearGradient id="paint5_linear_44_1090" x1="14.1842" y1="227.289" x2="115.957" y2="323.257" gradientUnits="userSpaceOnUse">
<stop stop-color="#870DFF"/>
<stop offset="1" stop-color="#0CEAFF"/>
</linearGradient>
<linearGradient id="paint6_linear_44_1090" x1="69.7132" y1="196.097" x2="69.7132" y2="337.007" gradientUnits="userSpaceOnUse">
<stop stop-color="#4365CB"/>
<stop offset="1" stop-color="#7791D0"/>
</linearGradient>
</defs>
</svg>
