<svg width="30" height="30" viewBox="0 0 30 30" fill="none" xmlns="http://www.w3.org/2000/svg">
<rect width="30" height="30" rx="10" fill="white" fill-opacity="0.46"/>
<path d="M11.1952 22.1876C10.9554 22.1871 10.7198 22.1243 10.5116 22.0051C10.0429 21.7395 9.75146 21.2239 9.75146 20.6641V9.33601C9.75146 8.77468 10.0429 8.26062 10.5116 7.99499C10.7247 7.8725 10.9669 7.80952 11.2127 7.81261C11.4585 7.8157 11.6989 7.88476 11.9089 8.01257L21.5905 13.8079C21.7923 13.9344 21.9586 14.1101 22.0739 14.3185C22.1892 14.5269 22.2497 14.7611 22.2497 14.9993C22.2497 15.2374 22.1892 15.4717 22.0739 15.6801C21.9586 15.8885 21.7923 16.0642 21.5905 16.1907L11.9073 21.9876C11.6924 22.1175 11.4463 22.1866 11.1952 22.1876Z" fill="#161616"/>
</svg>
