<svg width="116" height="23" viewBox="0 0 116 23" fill="none" xmlns="http://www.w3.org/2000/svg">
<g clip-path="url(#clip0_44_1140)">
<mask id="mask0_44_1140" style="mask-type:luminance" maskUnits="userSpaceOnUse" x="0" y="0" width="116" height="23">
<path d="M0.5 0H115.082V22.63H0.5V0Z" fill="white"/>
</mask>
<g mask="url(#mask0_44_1140)">
<path d="M32.9858 13.0206C32.9842 13.0993 32.9431 13.1743 32.8716 13.2292C32.8 13.2841 32.7037 13.3144 32.6039 13.3135H25.57C25.7502 14.6847 27.0556 15.9396 28.9016 15.9396C30.164 15.9396 31.0977 15.5628 31.798 14.7686C31.8305 14.7269 31.8755 14.6921 31.9291 14.6673C31.9827 14.6425 32.0432 14.6285 32.1053 14.6265C32.1516 14.6256 32.1976 14.6321 32.2406 14.6457C32.2837 14.6592 32.3227 14.6795 32.3555 14.7053C32.3882 14.7311 32.414 14.7619 32.4312 14.7958C32.4483 14.8297 32.4566 14.866 32.4554 14.9025C32.4559 14.9529 32.4377 15.0023 32.4031 15.0446C31.6916 16.0147 30.2807 16.4916 28.9016 16.4916C26.5355 16.4916 24.838 14.8187 24.838 13.0375C24.838 11.2564 26.5252 9.58345 28.9016 9.58345C31.2788 9.58345 32.9755 11.2394 32.9866 13.0206H32.9858ZM32.2331 12.7615C32.0847 11.3903 30.7484 10.1354 28.9016 10.1354C27.0556 10.1354 25.7502 11.3903 25.57 12.7615H32.2331ZM41.5378 9.71739C41.595 9.71886 41.6508 9.73102 41.7008 9.75285C41.7508 9.77469 41.7935 9.80558 41.8253 9.84298C41.8572 9.88038 41.8773 9.92322 41.884 9.96795C41.8907 10.0127 41.8839 10.058 41.864 10.1003C41.838 10.1513 41.7929 10.1949 41.7346 10.2252C41.6763 10.2554 41.6076 10.2708 41.5378 10.2694H39.6498V16.1148C39.6491 16.1879 39.6119 16.2579 39.5462 16.3096C39.4805 16.3612 39.3916 16.3904 39.2988 16.3908C39.2067 16.3887 39.1192 16.359 39.0541 16.3077C38.9889 16.2563 38.9512 16.1873 38.9486 16.1148V10.2694H37.1344C37.088 10.2706 37.0417 10.2643 36.9986 10.2509C36.9554 10.2374 36.9161 10.2172 36.8833 10.1913C36.8505 10.1654 36.8248 10.1345 36.8077 10.1004C36.7907 10.0664 36.7827 10.03 36.7842 9.99339C36.7851 9.92041 36.8223 9.85061 36.8878 9.79901C36.9532 9.7474 37.0418 9.71809 37.1344 9.71739H38.9486V7.58515C38.9488 7.51444 38.9809 7.4461 39.0393 7.3924C39.0976 7.33871 39.1784 7.30319 39.267 7.29224C39.3165 7.28708 39.3669 7.2904 39.4147 7.30197C39.4624 7.31354 39.5064 7.33309 39.5437 7.35928C39.581 7.38547 39.6108 7.4177 39.6308 7.45376C39.6509 7.48982 39.6609 7.52887 39.6601 7.56824V9.71739H41.5378V9.71739ZM53.0481 12.5437V16.0816C53.0462 16.1266 53.0308 16.1705 53.0032 16.2098C52.9755 16.2492 52.9364 16.2828 52.8891 16.3078C52.8417 16.3329 52.7875 16.3488 52.7309 16.3542C52.6742 16.3595 52.6168 16.3542 52.5632 16.3387C52.4985 16.3182 52.4432 16.2827 52.4048 16.2367C52.3664 16.1907 52.3469 16.1366 52.3487 16.0816V12.5437C52.3487 11.3484 51.4888 10.1605 49.8024 10.1605C47.638 10.1605 46.7043 11.6487 46.8313 13.1796C46.8313 13.2215 46.8527 13.3967 46.8527 13.4217V16.0735C46.8524 16.144 46.8203 16.2121 46.7621 16.2656C46.7039 16.3192 46.6235 16.3547 46.5352 16.3657C46.4857 16.3709 46.4353 16.3676 46.3876 16.356C46.3398 16.3444 46.2958 16.3249 46.2585 16.2987C46.2212 16.2725 46.1915 16.2403 46.1714 16.2042C46.1513 16.1682 46.1413 16.1291 46.1421 16.0897V4.45715C46.1428 4.38412 46.1799 4.31422 46.2454 4.26258C46.311 4.21093 46.3996 4.18168 46.4923 4.18115C46.5843 4.1832 46.6719 4.21293 46.737 4.26426C46.8021 4.31558 46.8398 4.3846 46.8424 4.45715V11.0304C47.4466 10.1774 48.5288 9.60036 49.7912 9.60036C51.8707 9.60036 53.049 11.0304 53.049 12.5437H53.0481ZM65.6844 13.0206C65.6828 13.0993 65.6418 13.1743 65.5702 13.2292C65.4986 13.2841 65.4024 13.3144 65.3025 13.3135H58.2686C58.4488 14.6847 59.7533 15.9396 61.6002 15.9396C62.8626 15.9396 63.7963 15.5628 64.4966 14.7686C64.5291 14.7269 64.5742 14.6921 64.6277 14.6673C64.6813 14.6425 64.7418 14.6285 64.8039 14.6265C64.8502 14.6256 64.8962 14.6321 64.9393 14.6457C64.9823 14.6592 65.0213 14.6795 65.0541 14.7053C65.0869 14.7311 65.1126 14.7619 65.1298 14.7958C65.147 14.8297 65.1552 14.866 65.154 14.9025C65.1542 14.953 65.1357 15.0023 65.1008 15.0446C64.3902 16.0147 62.9793 16.4916 61.5993 16.4916C59.2341 16.4916 57.5366 14.8187 57.5366 13.0375C57.5366 11.2564 59.2238 9.58345 61.6002 9.58345C63.9551 9.58345 65.6741 11.2394 65.6853 13.0206H65.6844ZM64.9206 12.7615C64.7721 11.3903 63.4359 10.1354 61.5899 10.1354C59.743 10.1354 58.4385 11.3903 58.2583 12.7615H64.9206ZM74.3317 9.97648C74.3386 10.0508 74.3077 10.1243 74.2459 10.1807C74.1842 10.2372 74.0965 10.272 74.0022 10.2775C71.9339 10.5204 71.0002 11.8503 71.0002 13.3974V16.0485C70.9998 16.1191 70.9676 16.1873 70.9092 16.2408C70.8509 16.2944 70.7702 16.3298 70.6818 16.3407C70.6323 16.3459 70.5819 16.3426 70.5342 16.331C70.4865 16.3194 70.4425 16.2999 70.4053 16.2737C70.3681 16.2474 70.3384 16.2152 70.3185 16.1792C70.2985 16.1431 70.2886 16.1041 70.2896 16.0647V10.0184C70.2897 9.94781 70.3217 9.87954 70.3799 9.82586C70.4381 9.77218 70.5186 9.7366 70.6071 9.7255C70.6567 9.72034 70.7071 9.72367 70.7549 9.73528C70.8028 9.74689 70.8468 9.7665 70.8842 9.79276C70.9215 9.81903 70.9512 9.85134 70.9712 9.88748C70.9912 9.92363 71.0011 9.96275 71.0002 10.0022V11.2313C71.5837 10.4534 72.7397 9.71739 73.9498 9.71739C74.13 9.71739 74.3317 9.81818 74.3317 9.97648V9.97648ZM85.8961 13.0206C85.8945 13.0993 85.8534 13.1743 85.7819 13.2292C85.7103 13.2841 85.614 13.3144 85.5142 13.3135H78.4794C78.6597 14.6847 79.965 15.9396 81.811 15.9396C83.0734 15.9396 84.008 15.5628 84.7075 14.7686C84.74 14.7269 84.785 14.6921 84.8386 14.6674C84.8922 14.6426 84.9526 14.6286 85.0147 14.6265C85.0611 14.6255 85.1072 14.6319 85.1503 14.6454C85.1935 14.6589 85.2326 14.6792 85.2655 14.7051C85.2983 14.7309 85.3242 14.7617 85.3414 14.7957C85.3586 14.8296 85.3669 14.866 85.3657 14.9025C85.3659 14.953 85.3474 15.0023 85.3125 15.0446C84.601 16.0147 83.1902 16.4916 81.811 16.4916C79.4449 16.4916 77.7474 14.8187 77.7474 13.0375C77.7474 11.2564 79.4346 9.58345 81.811 9.58345C84.1883 9.58345 85.8849 11.2394 85.8961 13.0206V13.0206ZM85.1426 12.7615C84.9941 11.3903 83.6579 10.1354 81.811 10.1354C79.965 10.1354 78.6597 11.3903 78.4794 12.7615H85.1426V12.7615ZM97.2691 10.0434V16.1148C97.2672 16.1598 97.2518 16.2038 97.2241 16.2432C97.1964 16.2826 97.1572 16.3163 97.1097 16.3414C97.0623 16.3665 97.0079 16.3823 96.9512 16.3876C96.8944 16.3929 96.8369 16.3875 96.7833 16.3718C96.7184 16.3516 96.6629 16.316 96.6246 16.27C96.5862 16.224 96.5667 16.1698 96.5688 16.1148V14.9607C95.9852 15.8726 94.9562 16.5335 93.6406 16.5335C91.5508 16.5335 90.394 15.1034 90.394 13.5895V10.0353C90.3953 9.96246 90.4326 9.89286 90.498 9.84133C90.5634 9.78979 90.6517 9.76038 90.7441 9.75933C90.8361 9.76154 90.9235 9.79132 90.9886 9.84261C91.0537 9.8939 91.0915 9.96283 91.0943 10.0353V13.5895C91.0943 14.7855 91.9542 15.9727 93.6406 15.9727C96.0066 15.9727 96.5688 14.2254 96.5688 12.2927V10.0265C96.5707 9.95926 96.6031 9.89474 96.66 9.84463C96.717 9.79451 96.7948 9.7621 96.8794 9.75324C96.9356 9.74734 96.9927 9.75222 97.0459 9.76745C97.1127 9.79179 97.1693 9.83074 97.2088 9.87966C97.2484 9.92859 97.2693 9.98543 97.2691 10.0434V10.0434ZM115.082 12.5187V16.0735C115.08 16.1184 115.065 16.1624 115.037 16.2017C115.009 16.241 114.97 16.2746 114.923 16.2997C114.876 16.3248 114.821 16.3407 114.765 16.3461C114.708 16.3514 114.651 16.3461 114.597 16.3306C114.554 16.3171 114.515 16.2966 114.482 16.2704C114.449 16.2448 114.423 16.2141 114.406 16.1802C114.389 16.1463 114.381 16.11 114.383 16.0735V12.5187C114.383 11.3233 113.523 10.1524 111.836 10.1524C109.714 10.1524 108.908 11.9423 108.908 13.3304V16.0735C108.906 16.1185 108.891 16.1626 108.863 16.202C108.835 16.2414 108.796 16.275 108.749 16.3001C108.701 16.3252 108.647 16.3411 108.59 16.3464C108.533 16.3517 108.476 16.3462 108.422 16.3306C108.357 16.3103 108.302 16.2747 108.264 16.2287C108.225 16.1827 108.206 16.1285 108.208 16.0735V12.5187C108.208 11.3233 107.348 10.1524 105.661 10.1524C103.518 10.1524 102.637 11.4823 102.712 13.2547C102.712 13.2966 102.733 13.3717 102.712 13.3967V16.0647C102.712 16.1355 102.68 16.2039 102.621 16.2576C102.563 16.3113 102.482 16.3468 102.393 16.3576C102.344 16.3628 102.294 16.3595 102.246 16.3479C102.198 16.3363 102.154 16.3168 102.117 16.2906C102.08 16.2644 102.05 16.2321 102.03 16.1961C102.01 16.16 102 16.121 102.001 16.0816V10.0184C102.001 9.94763 102.033 9.87914 102.091 9.82539C102.15 9.77164 102.231 9.73619 102.32 9.7255C102.369 9.72045 102.419 9.72385 102.467 9.73547C102.515 9.74708 102.559 9.76665 102.596 9.79283C102.633 9.81901 102.663 9.8512 102.683 9.88721C102.703 9.92321 102.713 9.9622 102.712 10.0015V11.0135C103.317 10.1612 104.399 9.60036 105.661 9.60036C107.094 9.60036 108.208 10.3194 108.664 11.3646C109.247 10.3276 110.383 9.60036 111.836 9.60036C113.905 9.60036 115.082 11.0142 115.082 12.5187V12.5187Z" fill="#0C131F"/>
<path opacity="0.6" d="M9.30522 8.37134L0.5 11.5237L9.30522 15.6299L18.1225 11.5237L9.30608 8.37134H9.30522Z" fill="#0C131F"/>
<path opacity="0.45" d="M0.5 11.5237L9.30522 15.6299V0L0.5 11.5237Z" fill="#0C131F"/>
<path opacity="0.8" d="M9.30524 0V15.6299L18.1225 11.5237L9.30524 0Z" fill="#0C131F"/>
<path opacity="0.45" d="M0.5 12.8455L9.30522 22.6299V16.9428L0.5 12.8461V12.8455Z" fill="#0C131F"/>
<path opacity="0.8" d="M9.30524 16.9428V22.6299L18.1225 12.8455L9.30609 16.9428H9.30524Z" fill="#0C131F"/>
</g>
</g>
<defs>
<clipPath id="clip0_44_1140">
<rect width="115" height="23" fill="white" transform="translate(0.5)"/>
</clipPath>
</defs>
</svg>
