<svg width="116" height="23" viewBox="0 0 116 23" fill="none" xmlns="http://www.w3.org/2000/svg">
<g clip-path="url(#clip0_44_1150)">
<path d="M3.86102 3.52283L9.20726 0L14.5527 3.52283L12.5876 4.82425L9.20726 2.60283L5.82609 4.82425L3.86102 3.52283V3.52283ZM14.5518 7.96567L12.5876 6.66425L9.20726 8.88567L5.82609 6.66425L3.86102 7.96567V10.5685L7.24135 12.7899V17.2327L9.20726 18.5342L11.1723 17.2327V12.7899L14.5527 10.5685V7.96567H14.5518ZM14.5518 15.0113V12.4085L12.5876 13.7099V16.3127L14.5527 15.0113H14.5518ZM15.9478 15.9313L12.5674 18.1527V20.7556L17.9128 17.2327V10.1871L15.9478 11.4885V15.9313V15.9313ZM13.9827 5.74425L15.9469 7.04567V9.6485L17.9128 8.34708V5.74425L15.9478 4.44283L13.9827 5.74425V5.74425ZM7.24051 19.0958V21.6986L9.20726 23L11.1723 21.6986V19.0958L9.20726 20.3972L7.24135 19.0958H7.24051ZM3.86018 15.0113L5.82526 16.3127V13.7099L3.86018 12.4085V15.0113ZM7.24051 5.74425L9.20642 7.04567L11.1715 5.74425L9.20642 4.44283L7.24051 5.74425V5.74425ZM2.46423 7.04567L4.43015 5.74425L2.46423 4.44283L0.5 5.74425V8.34708L2.46507 9.6485V7.04567H2.46423ZM2.46423 11.4885L0.5 10.1871V17.2327L5.84624 20.7565V18.1527L2.46423 15.9313V11.4885V11.4885ZM33.4093 14.4344V14.397C33.4093 12.6787 32.6085 11.8191 31.3108 11.2527C32.1116 10.74 32.7848 9.936 32.7848 8.49083V8.45442C32.7848 6.44287 31.3746 5.14433 29.0846 5.14433H23.8794V17.9448H29.2131C31.7431 17.9448 33.4093 16.7747 33.4093 14.4335V14.4344ZM30.3328 8.96521C30.3328 9.91587 29.6445 10.3184 28.555 10.3184H26.2801V7.613H28.7153C29.7562 7.613 30.3328 8.08833 30.3328 8.92975V8.96617V8.96521ZM30.9582 14.0856C30.9582 15.0362 30.3009 15.4752 29.2122 15.4752H26.281V12.6596H29.1316C30.3975 12.6596 30.9574 13.1895 30.9574 14.0492V14.0856H30.9582ZM45.5607 17.9448V5.14433H43.1264V13.0257L37.8725 5.14433H35.5977V17.9448H38.0328V9.80854L43.463 17.9448H45.5615H45.5607ZM57.9429 14.4344V14.397C57.9429 12.6787 57.1421 11.8191 55.8444 11.2527C56.6452 10.74 57.3175 9.936 57.3175 8.49083V8.45442C57.3175 6.44287 55.9082 5.14433 53.6182 5.14433H48.4122V17.9448H53.7458C56.2767 17.9448 57.9429 16.7747 57.9429 14.4335V14.4344ZM54.8673 8.96617C54.8673 9.91683 54.179 10.3193 53.0894 10.3193H50.8146V7.613H53.2489C54.2906 7.613 54.8673 8.08833 54.8673 8.92975V8.96617V8.96617ZM55.4918 14.0865C55.4918 15.0372 54.8354 15.4761 53.7458 15.4761H50.8154V12.6605H53.6661C54.9311 12.6605 55.4918 13.1905 55.4918 14.0501V14.0865V14.0865ZM72.8081 15.6841L71.5431 14.2207C70.582 15.2452 69.7015 15.8853 68.324 15.8853C66.1776 15.8853 64.6238 13.8364 64.6238 11.3141C64.6238 8.78983 66.1768 6.77829 68.324 6.77829C69.6049 6.77829 70.5661 7.41846 71.4634 8.36912L72.7284 6.70546C71.6556 5.53533 70.4057 4.71212 68.3399 4.71212C64.9445 4.71212 62.558 7.69254 62.558 11.3495C62.558 15.0439 64.9923 17.9515 68.2593 17.9515C70.3579 17.9515 71.6397 17.0737 72.809 15.6841H72.8081ZM82.359 12.3376V17.732H84.3291V4.93158H82.359V10.2522H77.0094V4.93158H75.0393V17.732H77.0094V12.3366H82.359V12.3376ZM93.1665 4.83958H91.3408L86.4075 17.732H88.4255L89.5788 14.6414H94.8806L96.018 17.732H98.0997L93.1665 4.83958ZM94.1595 12.6481H90.2999L92.2213 7.52771L94.1595 12.6481ZM100.295 4.93158V17.732H102.265V4.93158H100.295ZM113.259 13.7818L107.252 4.93158H105.426V17.732H107.364V8.625L113.547 17.732H115.197V4.93158H113.259V13.7818Z" fill="#0C131F"/>
</g>
<defs>
<clipPath id="clip0_44_1150">
<rect width="115" height="23" fill="white" transform="translate(0.5)"/>
</clipPath>
</defs>
</svg>
