<svg width="116" height="23" viewBox="0 0 116 23" fill="none" xmlns="http://www.w3.org/2000/svg">
<path d="M39.8072 12.1281H44.0859C44.6881 12.1281 45.1753 12.643 45.1753 13.271C45.1753 13.9044 44.6881 14.414 44.0868 14.414H38.9249C38.8441 14.414 38.7662 14.445 38.7072 14.5006L37.1508 15.9028C36.912 16.1195 37.0577 16.5255 37.3685 16.5255H43.8269C43.8269 16.5255 43.8322 16.5255 43.8322 16.5193C43.8322 16.514 43.8374 16.514 43.8374 16.514C43.92 16.5193 43.9981 16.5255 44.0815 16.5255C45.7933 16.5255 47.183 15.0686 47.183 13.271C47.183 11.5655 45.9329 10.1634 44.3352 10.028C44.3352 10.028 44.3299 10.028 44.3299 10.0227C44.3299 10.0165 44.3299 10.0165 44.3247 10.0165H39.7185C39.1172 10.0165 38.63 9.50345 38.63 8.87537C38.63 8.24111 39.1172 7.73245 39.7185 7.73245H44.8698C44.9547 7.73218 45.0364 7.69928 45.0981 7.64045L46.5439 6.23657C46.7721 6.01541 46.622 5.61999 46.3156 5.61999H39.7229C38.0111 5.61999 36.6214 7.07607 36.6214 8.87361C36.6214 10.6711 38.0111 12.1281 39.7229 12.1281H39.8063H39.8072ZM64.7157 5.61468C64.6702 5.6156 64.6253 5.62559 64.5836 5.6441C64.542 5.6626 64.5044 5.68924 64.4731 5.72248C64.4417 5.75572 64.4172 5.79489 64.401 5.83773C64.3848 5.88057 64.3771 5.92623 64.3786 5.97207V16.1735C64.3786 16.3681 64.5287 16.5308 64.7157 16.5308H72.5479C72.595 16.5297 72.6413 16.519 72.6842 16.4994C72.727 16.4798 72.7655 16.4517 72.7973 16.4167L73.7778 15.318C73.9797 15.0907 73.8296 14.7165 73.5285 14.7165H66.6917C66.6462 14.7156 66.6014 14.7056 66.5597 14.6871C66.5181 14.6686 66.4805 14.6419 66.4492 14.6087C66.4178 14.5755 66.3933 14.5363 66.3771 14.4934C66.3608 14.4506 66.3532 14.4049 66.3546 14.3591V5.96676C66.3565 5.87444 66.3222 5.78511 66.259 5.71818C66.1959 5.65126 66.1091 5.61215 66.0175 5.60938H64.7157V5.61468Z" fill="#0C131F"/>
<path fill-rule="evenodd" clip-rule="evenodd" d="M52.1728 5.61548C52.1728 5.62079 52.1728 5.62079 52.1728 5.61548C51.172 5.66413 50.3679 6.50275 50.3205 7.54836V14.4952C50.3205 15.5833 51.1404 16.4715 52.1728 16.5148H59.2791C60.3062 16.4653 61.1313 15.5771 61.1313 14.4944V7.55279C61.0901 6.50894 60.286 5.66413 59.2843 5.62079H52.1736V5.61548H52.1728ZM53.501 7.55279C53.4957 7.55279 53.4957 7.55279 53.501 7.55279C52.8733 7.58021 52.3703 8.11098 52.3439 8.77179V13.1409C52.3439 13.8229 52.8575 14.3864 53.501 14.4139H57.957C58.5996 14.3873 59.1131 13.8229 59.1131 13.1409V8.7709C59.0868 8.11098 58.5847 7.58552 57.957 7.55367H53.501V7.55279ZM85.1637 16.1734C85.1637 16.368 85.3138 16.5307 85.5008 16.5307H86.8281C86.8737 16.5299 86.9187 16.52 86.9604 16.5016C87.0021 16.4831 87.0398 16.4565 87.0713 16.4233C87.1027 16.39 87.1273 16.3508 87.1436 16.3079C87.1599 16.265 87.1675 16.2193 87.1661 16.1734V7.64567C87.1661 6.55759 86.3515 5.66856 85.3349 5.62609H78.4305C77.3718 5.62609 76.5168 6.53017 76.5168 7.65098V16.1787C76.5168 16.3733 76.666 16.5361 76.8539 16.5361H78.1812C78.2267 16.5351 78.2716 16.5251 78.3132 16.5066C78.3548 16.4881 78.3924 16.4615 78.4238 16.4283C78.4551 16.395 78.4796 16.3558 78.4958 16.313C78.5121 16.2702 78.5197 16.2245 78.5183 16.1787V12.6641C78.5183 12.4695 78.6693 12.3067 78.8554 12.3067H84.8424C85.0285 12.3067 85.1786 12.4642 85.1786 12.6641V16.1734H85.1637ZM78.5086 10.3632V8.60902C78.5086 7.92698 79.0318 7.37498 79.6762 7.37498H84.0014C84.6449 7.37498 85.169 7.92698 85.169 8.60902V10.3632C85.169 10.5578 85.018 10.7206 84.831 10.7206H78.8457C78.8002 10.7197 78.7554 10.7097 78.7137 10.6912C78.6721 10.6727 78.6345 10.646 78.6032 10.6128C78.5718 10.5796 78.5473 10.5404 78.5311 10.4975C78.5149 10.4547 78.5072 10.409 78.5086 10.3632V10.3632ZM113.2 16.5307C113.155 16.5298 113.11 16.5198 113.068 16.5013C113.026 16.4828 112.989 16.4562 112.957 16.423C112.926 16.3897 112.902 16.3505 112.885 16.3077C112.869 16.2649 112.862 16.2192 112.863 16.1734V12.6588C112.865 12.5665 112.83 12.4771 112.767 12.4102C112.704 12.3433 112.617 12.3042 112.526 12.3014H106.472C106.427 12.3023 106.382 12.3123 106.34 12.3308C106.298 12.3493 106.261 12.376 106.229 12.4092C106.198 12.4424 106.174 12.4816 106.157 12.5245C106.141 12.5673 106.134 12.613 106.135 12.6588V16.1734C106.135 16.368 105.985 16.5307 105.798 16.5307H104.46C104.415 16.5298 104.37 16.5198 104.328 16.5013C104.286 16.4828 104.249 16.4562 104.217 16.423C104.186 16.3897 104.162 16.3505 104.145 16.3077C104.129 16.2649 104.122 16.2192 104.123 16.1734V7.64567C104.123 6.53017 104.988 5.6199 106.058 5.6199H113.034C114.061 5.66944 114.886 6.55759 114.886 7.64036V16.1681C114.886 16.3627 114.735 16.5254 114.548 16.5254H113.2V16.5307ZM106.135 8.60902V10.3632C106.135 10.5578 106.286 10.7206 106.472 10.7206H112.526C112.571 10.7197 112.616 10.7097 112.658 10.6912C112.699 10.6727 112.737 10.646 112.768 10.6128C112.8 10.5796 112.824 10.5404 112.84 10.4975C112.857 10.4547 112.864 10.409 112.863 10.3632V8.60902C112.863 7.92698 112.334 7.37498 111.686 7.37498H107.312C106.659 7.37498 106.135 7.92698 106.135 8.60902V8.60902Z" fill="#0C131F"/>
<path d="M92.1664 5.61554C92.2647 5.61554 92.3578 5.658 92.4201 5.73938L98.3755 13.1525C98.5774 13.401 98.9663 13.2498 98.9663 12.9189V5.97204C98.9663 5.77742 99.1165 5.61465 99.3034 5.61465H100.632C100.819 5.61465 100.969 5.77212 100.969 5.97204V16.1734C100.969 16.368 100.819 16.5308 100.632 16.5308H98.9821C98.9769 16.5308 98.9716 16.5255 98.9716 16.5202C98.9716 16.5149 98.9716 16.5149 98.9663 16.5087L92.9082 9.15046C92.7054 8.90188 92.3165 9.05846 92.3165 9.384V16.1787C92.3165 16.3733 92.1664 16.5361 91.9794 16.5361H90.6407C90.5952 16.5352 90.5503 16.5252 90.5087 16.5067C90.4671 16.4882 90.4295 16.4616 90.3981 16.4283C90.3668 16.3951 90.3423 16.3559 90.3261 16.3131C90.3098 16.2702 90.3022 16.2246 90.3036 16.1787V5.97204C90.3036 5.77742 90.4546 5.61465 90.6407 5.61465H92.1664V5.61554ZM5.7426 16.905C5.82293 16.8197 5.91956 16.7517 6.02668 16.705C6.1338 16.6583 6.24918 16.634 6.36588 16.6334H27.9701C28.3642 16.6334 28.5609 17.1315 28.2808 17.419L24.0118 21.8748C23.9315 21.9598 23.835 22.0276 23.728 22.0741C23.6211 22.1207 23.5059 22.1449 23.3894 22.1455H1.78519C1.39016 22.1455 1.19351 21.6474 1.47355 21.3608L5.7426 16.9041V16.905ZM5.7426 0.270692C5.823 0.185544 5.91967 0.117668 6.02678 0.0711481C6.1339 0.0246284 6.24924 0.000426886 6.36588 0L27.9701 0C28.3642 0 28.5609 0.498038 28.2808 0.785538L24.0118 5.23515C23.9316 5.32036 23.8351 5.38833 23.7281 5.435C23.6212 5.48167 23.5059 5.50607 23.3894 5.50673H1.78519C1.39016 5.50673 1.19351 5.00869 1.47355 4.72119L5.7426 0.270692ZM24.0118 8.533C23.9315 8.44796 23.835 8.38014 23.728 8.33363C23.6211 8.28711 23.5059 8.26285 23.3894 8.26231H1.78519C1.39016 8.26231 1.19351 8.76123 1.47355 9.04785L5.7426 13.4983C5.90939 13.6717 6.13149 13.769 6.36588 13.769H27.9701C28.3642 13.769 28.5609 13.271 28.2808 12.9844L24.0118 8.533V8.533Z" fill="#0C131F"/>
</svg>
