<svg width="116" height="23" viewBox="0 0 116 23" fill="none" xmlns="http://www.w3.org/2000/svg">
<g clip-path="url(#clip0_44_1156)">
<path d="M27.6488 9.43672C25.4397 9.43672 23.6205 10.2321 22.1649 11.8469C20.7104 13.4387 19.9821 15.3257 19.9821 17.4417C19.9821 18.8964 20.4498 20.079 21.3599 20.9885C22.269 21.8989 23.4901 22.3531 25.0235 22.3531C27.0771 22.3531 28.8185 21.6028 30.2741 20.1011C31.2346 19.0105 31.6245 18.3511 31.8326 17.8729C32.3662 16.7408 32.6401 15.5278 32.6387 14.3031C32.6387 12.8704 32.2488 11.7108 31.469 10.8014C30.6891 9.89097 29.3902 9.43672 27.6488 9.43672V9.43672ZM27.7265 19.0325C26.973 19.6928 26.0891 20.033 25.1023 20.033C24.374 20.033 23.7771 19.8059 23.3609 19.3516C22.9447 18.8964 22.7366 18.2591 22.7366 17.4637C22.7366 15.8729 23.1791 14.5312 24.0881 13.4387C24.972 12.3472 26.1154 11.8019 27.4921 11.8019C29.0518 11.8019 29.8053 12.6203 29.8053 14.2801C29.8316 16.7143 28.5063 18.3511 27.7265 19.0335V19.0325ZM10.6529 9.36001e-06C5.24786 9.36001e-06 0.828575 3.84293 0.828575 8.59626C0.828575 9.55076 1.01148 10.4832 1.34881 11.3927C1.58319 12.006 2.36191 12.3472 3.09024 12.1431C3.79119 11.938 4.1811 11.2566 3.94781 10.6193C3.6627 9.91144 3.53049 9.16337 3.55791 8.41322C3.66196 5.20759 6.62458 2.5693 10.2881 2.41022C14.369 2.22813 17.7467 5.07055 17.7467 8.5953C17.7442 10.1769 17.0514 11.6979 15.8101 12.8475C14.5687 13.9971 12.8724 14.6885 11.068 14.7804C11.068 14.7804 9.69124 14.8494 9.01548 14.9395C8.67705 14.9855 8.41748 15.0305 8.23567 15.0545C8.15791 15.0765 8.08015 15.0085 8.10534 14.9395L8.33972 13.939L9.58719 8.82338C9.66175 8.51568 9.59419 8.19467 9.39926 7.93039C9.20434 7.66612 8.89786 7.48002 8.54672 7.41272C8.19538 7.34805 7.82908 7.40743 7.52754 7.57795C7.22601 7.74846 7.01366 8.01629 6.93672 8.32313C6.93672 8.32313 3.87005 20.8294 3.84377 20.9655C3.76918 21.273 3.83659 21.5939 4.03129 21.8582C4.226 22.1224 4.5322 22.3086 4.88315 22.3761C5.23464 22.4411 5.60123 22.3818 5.90301 22.2113C6.2048 22.0408 6.41731 21.7728 6.49424 21.4657C6.52053 21.3296 6.93672 19.6698 6.93672 19.6698C7.08445 19.0614 7.44324 18.5077 7.96409 18.0844C8.48493 17.661 9.14243 17.3887 9.84677 17.3046C10.1589 17.2596 11.3801 17.1915 11.3801 17.1915C16.4478 16.8504 20.4498 13.1436 20.4498 8.6183C20.4586 7.48825 20.2116 6.36785 19.723 5.32175C19.2345 4.27565 18.514 3.32456 17.6032 2.52334C16.6924 1.72211 15.6093 1.08663 14.4164 0.653541C13.2235 0.220454 11.9444 -0.00166176 10.6529 9.36001e-06V9.36001e-06ZM111.15 15.4177C110.499 15.2356 109.772 15.5087 109.512 16.077C108.316 18.6923 106.836 20.011 105.016 20.011C104.08 20.011 103.612 19.3056 103.612 17.9189C103.612 17.1456 103.873 15.6218 104.392 13.3707L104.782 11.7798H108.473C109.097 11.7798 109.668 11.3927 109.772 10.8464C109.813 10.6769 109.81 10.5015 109.764 10.333C109.717 10.1645 109.629 10.0072 109.505 9.87233C109.38 9.73747 109.223 9.62851 109.045 9.55334C108.866 9.47816 108.671 9.43865 108.473 9.43768H105.38L106.029 6.79938C106.073 6.62344 106.07 6.44128 106.022 6.26632C105.974 6.09135 105.882 5.92803 105.752 5.78838C105.622 5.64872 105.459 5.53627 105.273 5.45931C105.087 5.38235 104.884 5.34284 104.678 5.34368C104.028 5.34368 103.483 5.73084 103.326 6.29913L102.548 9.43672H93.9194C91.7103 9.43672 89.8911 10.2321 88.4356 11.8469C86.98 13.4387 86.2528 15.3257 86.2528 17.4417C86.247 17.9864 86.3254 18.5292 86.4861 19.0555C85.7851 19.6928 85.0316 20.011 84.2255 20.011C83.68 20.011 83.2901 19.8739 83.0558 19.6018C82.8225 19.3286 82.6921 18.8734 82.6921 18.2371C82.6921 17.3267 82.9002 15.985 83.3416 14.2121L85.6033 5.07055C85.6462 4.89467 85.6434 4.71262 85.5954 4.53778C85.5473 4.36294 85.455 4.19975 85.3254 4.0602C85.1957 3.92066 85.032 3.8083 84.8462 3.7314C84.6604 3.65449 84.4573 3.61499 84.2518 3.6158C83.9361 3.61713 83.6304 3.71234 83.3848 3.88579C83.1392 4.05925 82.9683 4.30063 82.9002 4.5703L81.5476 10.1421C80.6323 9.67698 79.592 9.43353 78.5335 9.43672C76.2992 9.43672 74.4264 10.1871 72.9193 11.7108C71.4386 13.2346 70.6851 15.1446 70.6851 17.4417C70.6851 18.1691 70.7891 18.8054 70.9972 19.3967C70.3992 19.8289 69.7749 20.034 69.0991 20.034C68.5537 20.034 68.1638 19.8969 67.878 19.6238C67.6184 19.3516 67.488 18.8964 67.488 18.2601C67.488 17.6918 67.6184 16.8044 67.9042 15.5538C67.9413 15.3854 67.9377 15.2122 67.8937 15.0451C67.8496 14.8781 67.7661 14.721 67.6485 14.5839C67.5309 14.4468 67.3818 14.3327 67.2108 14.249C67.0398 14.1654 66.8507 14.1139 66.6557 14.0981C66.3256 14.068 65.9939 14.1403 65.7186 14.3026C65.4433 14.4648 65.2419 14.7065 65.1497 14.9855C64.6295 16.5543 63.98 17.7598 63.2517 18.5783C62.3689 19.5558 61.4073 20.056 60.3931 20.056C59.7962 20.056 59.3022 19.8068 58.9123 19.3056C58.5487 18.8054 58.3669 18.146 58.3669 17.3506C58.3669 15.7358 58.8083 14.3942 59.7173 13.3707C60.6275 12.3251 61.7972 11.8019 63.2517 11.8019C63.98 11.8019 64.7083 11.938 65.3315 12.1661C65.7214 12.3021 66.1891 12.3021 66.5527 12.0971C67.488 11.5968 67.3851 10.3692 66.3972 10.028C65.8507 9.82388 65.5648 9.77884 65.3315 9.73284C64.7072 9.5958 63.9274 9.48272 63.3042 9.48272C61.0951 9.50476 59.2245 10.2551 57.7426 11.7568C56.9361 12.5703 56.3342 13.523 55.976 14.5533C54.676 18.2371 52.9608 20.079 50.9083 20.079C50.2063 20.079 49.6861 19.8739 49.375 19.4877C49.0366 19.1015 48.8811 18.6013 48.8811 18.01C48.8811 17.8049 48.8811 17.6458 48.9073 17.5318C50.2063 17.0775 51.272 16.3722 52.0507 15.4397C52.8316 14.5082 53.2467 13.4617 53.2467 12.3472C53.2467 10.4602 52.077 9.52776 49.7123 9.52776C48.0487 9.52776 46.5942 10.051 45.2941 11.0966L46.7508 5.13955C46.7938 4.9666 46.7918 4.78741 46.7451 4.61522C46.6983 4.44303 46.6079 4.28222 46.4806 4.14469C46.3533 4.00716 46.1923 3.89641 46.0095 3.82063C45.8267 3.74484 45.6268 3.70596 45.4245 3.70684C45.1106 3.70443 44.8059 3.79875 44.5635 3.97328C44.3212 4.1478 44.1569 4.39139 44.0992 4.66134L40.0972 21.0354C40.0545 21.2082 40.0566 21.3872 40.1034 21.5592C40.1502 21.7312 40.2405 21.8918 40.3677 22.0292C40.4948 22.1666 40.6556 22.2773 40.8382 22.3531C41.0207 22.4289 41.2204 22.4679 41.4225 22.4672C42.072 22.4672 42.6174 22.081 42.7477 21.5357L43.9952 16.5332C44.2033 15.8959 44.4881 15.2366 44.8791 14.5993C45.269 13.9629 45.8659 13.3486 46.6971 12.7803C47.4565 12.2115 48.4269 11.9045 49.4265 11.9169C50.1022 11.9169 50.4396 12.2121 50.4396 12.8263C50.4396 13.5087 49.9982 14.1901 49.1406 14.8273C48.2831 15.4637 47.3477 15.8729 46.3598 16.0099C46.2821 16.7373 46.2306 17.2376 46.2306 17.5557C46.2306 19.0795 46.6194 20.285 47.3992 21.1715C48.179 22.058 49.3224 22.4902 50.8558 22.4902C52.6487 22.4902 54.2083 21.8078 55.5335 20.4662C55.7153 20.2841 55.872 20.102 56.0538 19.8979C56.2619 20.3531 56.5214 20.7623 56.8588 21.1035C57.7163 22.0129 58.8609 22.4681 60.3153 22.4681C62.1608 22.4681 63.7204 21.6948 64.9931 20.126C65.5396 21.6948 66.8649 22.4681 69.0214 22.4681C70.2426 22.4681 71.3345 22.126 72.3476 21.4446C73.1537 22.126 74.1931 22.4672 75.4406 22.4672C77.2861 22.4672 78.8446 21.6948 80.1183 20.125C80.6638 21.6948 81.9901 22.4681 84.1466 22.4681C85.5244 22.4681 86.7456 22.058 87.8113 21.2396C88.7203 22.058 89.8638 22.4681 91.3193 22.4681C93.3718 22.4681 95.1132 21.7168 96.5688 20.216C97.5304 19.1245 97.9203 18.4652 98.1284 17.9879C98.6617 16.8557 98.9352 15.6427 98.9334 14.4181C98.9334 13.4627 98.7516 12.6213 98.4143 11.8939H101.974L101.636 13.2586C101.065 15.6007 100.779 17.1925 100.779 18.0339C100.779 20.9894 102.157 22.4681 104.886 22.4681C107.925 22.4681 110.265 20.6713 111.927 17.0555C112.239 16.3511 111.876 15.6458 111.149 15.4186L111.15 15.4177ZM80.5871 13.962C80.0942 16.032 79.3659 17.5557 78.4569 18.5332C77.5478 19.5107 76.5588 20.011 75.5194 20.011C74.9214 20.011 74.4286 19.7608 74.0387 19.2606C73.675 18.7603 73.4921 18.101 73.4921 17.3056C73.4921 15.6898 73.9346 14.3491 74.8437 13.3256C75.7527 12.2791 76.9235 11.7568 78.378 11.7568C79.1578 11.7568 79.9891 12.052 80.8992 12.6663L80.5871 13.962V13.962ZM95.6083 16.8274C95.6083 16.8274 94.8033 18.3511 94.0487 19.0325C93.2951 19.6928 92.4124 20.033 91.4245 20.033C90.6972 20.033 90.0992 19.8059 89.683 19.3516C89.2669 18.8964 89.0588 18.2591 89.0588 17.4637C89.0588 15.8729 89.5012 14.5312 90.4103 13.4387C91.3204 12.3472 92.4376 11.8019 93.8154 11.8019C95.375 11.8019 96.1285 12.6203 96.1285 14.2801C96.1285 15.0986 95.9719 15.9409 95.6083 16.8274V16.8274ZM39.3174 3.6158C38.668 3.6158 38.1214 4.00201 37.9922 4.5703L33.9902 20.9434C33.9472 21.1163 33.9492 21.2954 33.9959 21.4675C34.0426 21.6396 34.1329 21.8004 34.2601 21.9379C34.3873 22.0754 34.5481 22.1862 34.7308 22.262C34.9135 22.3379 35.1133 22.3769 35.3154 22.3761C35.9649 22.3761 36.5103 21.989 36.6407 21.4437L40.669 5.06959C40.7118 4.89371 40.7091 4.71166 40.661 4.53682C40.6129 4.36198 40.5207 4.19879 40.391 4.05924C40.2614 3.9197 40.0977 3.80734 39.9119 3.73044C39.7261 3.65354 39.523 3.61404 39.3174 3.61484V3.6158ZM114.032 19.7829C113.605 19.7052 113.16 19.7788 112.795 19.9878C112.43 20.1967 112.174 20.5238 112.084 20.8974C112.038 21.0827 112.035 21.2741 112.074 21.4606C112.113 21.647 112.195 21.8248 112.313 21.9835C112.432 22.1422 112.585 22.2787 112.764 22.3851C112.944 22.4915 113.145 22.5657 113.358 22.6033C114.267 22.7623 115.124 22.2851 115.306 21.4887C115.462 20.6933 114.916 19.9429 114.032 19.7829Z" fill="#0C131F"/>
</g>
<defs>
<clipPath id="clip0_44_1156">
<rect width="115" height="23" fill="white" transform="translate(0.5)"/>
</clipPath>
</defs>
</svg>
