<svg width="116" height="23" viewBox="0 0 116 23" fill="none" xmlns="http://www.w3.org/2000/svg">
<g clip-path="url(#clip0_44_1158)">
<mask id="mask0_44_1158" style="mask-type:luminance" maskUnits="userSpaceOnUse" x="1" y="0" width="115" height="23">
<path d="M1.25508 0H115.071V22.5019H1.25508V0Z" fill="white"/>
</mask>
<g mask="url(#mask0_44_1158)">
<path d="M45.7833 7.16796C46.4813 7.54785 47.0723 8.06972 47.4476 8.78192C47.8782 9.49413 48.0931 10.3483 48.0931 11.2976C48.0931 12.247 47.8773 13.0544 47.3942 13.7666C46.9789 14.459 46.3179 15.0097 45.514 15.333C44.709 15.7129 43.7418 15.9024 42.7211 15.9024C42.1508 15.9043 41.5855 15.8076 41.0567 15.6177C40.5191 15.4749 40.0359 15.1902 39.6597 14.8579V19.795H36.544V6.78885H39.23L39.4984 7.83337C40.6805 6.97841 41.9695 6.55172 43.3121 6.55172C44.225 6.55172 45.0843 6.74127 45.7833 7.16875V7.16796ZM44.0645 13.0544C44.6012 12.6269 44.8695 12.0574 44.8695 11.3452C44.8695 10.633 44.6021 10.0636 44.118 9.58851C43.6348 9.11423 42.9903 8.92389 42.2914 8.92389C41.7012 8.92389 41.1636 9.01906 40.734 9.25699C40.3043 9.44654 39.9824 9.77885 39.7132 10.2055V12.3422C39.8746 12.7696 40.1973 13.102 40.5726 13.3391C41.0023 13.577 41.4864 13.719 42.0765 13.719C42.8824 13.719 43.5269 13.4811 44.0645 13.0544V13.0544ZM49.9188 8.82872C50.402 8.1641 51.0465 7.59385 51.9068 7.21396C52.8061 6.80981 53.7992 6.5985 54.8067 6.59692C55.881 6.59692 56.8482 6.78727 57.7067 7.21396C58.5126 7.59465 59.1571 8.1641 59.6412 8.87551C60.1244 9.58772 60.3392 10.3475 60.3392 11.2493C60.3392 12.1518 60.1244 12.9108 59.6403 13.623C59.1571 14.3352 58.5661 14.9047 57.7067 15.2846C56.9008 15.6645 55.881 15.9016 54.8067 15.9016C53.7325 15.9016 52.7653 15.7113 51.9059 15.3322C51.0465 14.9515 50.402 14.4304 49.9179 13.7182C49.4551 12.9607 49.2153 12.1114 49.2208 11.2493C49.2208 10.3475 49.4882 9.54013 49.9188 8.82872V8.82872ZM53.088 12.9584C53.5177 13.4335 54.1087 13.623 54.8067 13.623C55.5048 13.623 56.0958 13.3851 56.5255 12.9584C56.9552 12.5309 57.17 11.9139 57.17 11.2493C57.17 10.5371 56.9552 9.96761 56.5255 9.54013C56.0423 9.06585 55.5048 8.82872 54.7533 8.82872C54.0543 8.82872 53.5177 9.06585 53.0345 9.49334C52.6039 9.96761 52.3891 10.5371 52.3891 11.2493C52.3891 11.9139 52.6039 12.4841 53.088 12.9584ZM65.3885 0.0466816V15.6637H62.2728V0.0474747H65.3885V0.0466816ZM78.1714 7.02441L71.833 19.8417H68.826L71.1884 15.237L66.6776 7.02441H70.2221L72.8002 12.1518L75.3784 7.02441H78.1714V7.02441ZM90.0948 7.02441V15.6645C90.0999 16.4654 89.8179 17.2468 89.2898 17.8955C88.7522 18.5601 88.0542 19.0827 87.1414 19.4619C86.2276 19.8425 85.2603 20.0313 84.187 20.0313C83.3811 20.0313 82.6831 19.9361 82.0921 19.7942C81.501 19.6038 81.0178 19.4143 80.6416 19.2247C80.2119 18.9868 79.7822 18.7021 79.2991 18.323L81.1257 16.4235C81.5197 16.7697 81.9728 17.0583 82.4683 17.2784C82.8979 17.4688 83.489 17.6108 84.1335 17.6108C84.9385 17.6108 85.5831 17.4204 86.1206 17.0889C86.6573 16.7558 86.9265 16.2339 86.9265 15.6169V14.3828C86.5795 14.8516 86.097 15.2286 85.5296 15.4741C84.885 15.7596 84.1335 15.9024 83.2741 15.9024C82.4139 15.9024 81.5554 15.7121 80.803 15.2846C80.0515 14.9047 79.4604 14.3352 78.9764 13.623C78.5467 12.9108 78.2783 12.1518 78.2783 11.2969C78.2783 10.4427 78.4932 9.6353 78.9764 8.9231C79.4604 8.21089 80.0515 7.64144 80.8574 7.21396C81.5777 6.80288 82.4175 6.58838 83.2733 6.59692C84.0791 6.59692 84.7781 6.6921 85.4217 6.88244C86.0671 7.07199 86.5503 7.35672 86.8721 7.68903L87.1948 7.02441H90.0948V7.02441ZM86.9265 12.3414V10.2048C86.7226 9.77941 86.3628 9.42802 85.9058 9.20782C85.3972 8.95479 84.8232 8.82412 84.2405 8.82872C83.489 8.82872 82.8436 9.06585 82.3069 9.49334C81.7693 9.92003 81.501 10.4895 81.501 11.2017C81.501 11.8663 81.7702 12.4841 82.3069 12.9584C82.5578 13.1879 82.8587 13.3694 83.1912 13.4918C83.5237 13.6143 83.8807 13.6751 84.2405 13.6706C85.4761 13.623 86.389 13.1955 86.9265 12.3414V12.3414ZM92.6747 8.82951C93.1579 8.1173 93.8024 7.59465 94.6618 7.16796C95.5611 6.76373 96.5542 6.55241 97.5618 6.55092C98.636 6.55092 99.6033 6.74048 100.463 7.16796C101.269 7.54785 101.913 8.1173 102.396 8.82951C102.826 9.54092 103.094 10.3007 103.094 11.2025C103.094 12.105 102.879 12.864 102.396 13.5762C101.965 14.2977 101.288 14.8793 100.463 15.2378C99.6567 15.6177 98.636 15.8548 97.5618 15.8548C96.4876 15.8548 95.5212 15.6645 94.6618 15.2854C93.8024 14.9055 93.1579 14.3836 92.6747 13.6714C92.1907 12.9592 91.9758 12.1526 91.9758 11.1557C91.9758 10.3483 92.1907 9.54092 92.6747 8.82951V8.82951ZM95.7895 12.9592C96.2192 13.4343 96.8103 13.6238 97.5083 13.6238C98.2063 13.6238 98.7974 13.3859 99.2271 12.9592C99.6567 12.5317 99.8716 11.9147 99.8716 11.2501C99.8716 10.5379 99.6567 9.96841 99.2271 9.54092C98.7974 9.11423 98.2063 8.8771 97.5083 8.8771C96.8103 8.8771 96.2727 9.11423 95.7895 9.54092C95.3064 9.9692 95.0915 10.5854 95.0915 11.2501C95.145 11.9147 95.3598 12.4841 95.7895 12.9592ZM114.106 7.30913C114.75 7.7842 115.019 8.40123 115.072 9.16103V15.6645H111.903V10.2048C111.849 9.35058 111.366 8.9231 110.453 8.9231C109.754 8.9231 109.164 9.20861 108.735 9.82565C108.305 10.4427 108.09 11.2017 108.09 12.1042V15.6645H104.974V7.02441H107.821L108.036 8.40123C108.395 7.84667 108.914 7.38771 109.54 7.07199C110.184 6.73889 110.937 6.59692 111.796 6.59692C112.709 6.59692 113.515 6.83485 114.106 7.30913V7.30913ZM23.2236 6.88403C22.687 6.59851 21.9881 6.59851 21.3979 6.88403L17.208 9.06665L14.3615 10.4911L10.1716 12.6753C9.63403 12.96 8.93601 12.96 8.34585 12.6753L5.01531 10.9661C4.47775 10.6806 4.10244 10.1588 4.10244 9.5893V6.21782C4.10244 5.64837 4.42427 5.12572 5.01531 4.84099L8.29148 3.18023C8.82903 2.89551 9.52706 2.89551 10.1181 3.18023L13.3943 4.84178C13.9318 5.1273 14.3071 5.64916 14.3071 6.21861V8.40203L17.1545 6.93082V4.74741C17.1545 4.17716 16.8318 3.6553 16.2407 3.37058L10.1725 0.23782C9.63493 -0.0476977 8.9369 -0.0476977 8.34675 0.23782L2.16706 3.37058C1.88799 3.5038 1.65543 3.70267 1.49476 3.94547C1.33409 4.18827 1.25149 4.46568 1.25597 4.74741V11.0605C1.25597 11.6308 1.57868 12.1526 2.16973 12.4373L8.34675 15.5701C8.88341 15.8556 9.58144 15.8556 10.1725 15.5701L14.3624 13.4343L17.2089 11.9631L21.3988 9.82644C21.9355 9.54172 22.6335 9.54172 23.2245 9.82644L26.5007 11.488C27.0383 11.7735 27.4145 12.2954 27.4145 12.8648V16.2355C27.4145 16.805 27.0917 17.3268 26.5007 17.6115L23.2245 19.3207C22.6879 19.6062 21.989 19.6062 21.3988 19.3207L18.1217 17.6591C17.5851 17.3744 17.2089 16.8525 17.2089 16.2831V14.0989L14.3624 15.5709V17.7543C14.3624 18.3237 14.6842 18.8464 15.2753 19.1311L21.4523 22.2639C21.989 22.5494 22.6879 22.5494 23.278 22.2639L29.4559 19.1311C29.9926 18.8456 30.3688 18.3237 30.3688 17.7543V11.4412C30.3688 10.871 30.0461 10.3491 29.455 10.0644L23.2236 6.88403Z" fill="#0C131F"/>
</g>
</g>
<defs>
<clipPath id="clip0_44_1158">
<rect width="115" height="23" fill="white" transform="translate(0.5)"/>
</clipPath>
</defs>
</svg>
