<svg width="116" height="23" viewBox="0 0 116 23" fill="none" xmlns="http://www.w3.org/2000/svg">
<g clip-path="url(#clip0_44_1163)">
<mask id="mask0_44_1163" style="mask-type:luminance" maskUnits="userSpaceOnUse" x="0" y="0" width="115" height="23">
<path d="M0.985962 0H114.76V23H0.985962V0Z" fill="white"/>
</mask>
<g mask="url(#mask0_44_1163)">
<path d="M31.7859 7.48995H33.022L36.4817 15.508H34.8487L34.0993 13.6732H30.6174L29.891 15.508H28.2929L31.7867 7.48995H31.7859ZM33.6007 12.4505L32.3639 9.18898L31.1048 12.4505H33.6007V12.4505ZM38.0152 7.48995H39.6601L41.8488 13.5486L44.1065 7.49069H45.6497L42.4045 15.5073H41.1677L38.0145 7.4892L38.0152 7.48995ZM50.7572 7.48995H51.994L55.4537 15.508H53.8199L53.0713 13.6732H49.5887L48.8631 15.508H47.2635L50.7572 7.48995ZM52.572 12.4505L51.3359 9.18898L50.0769 12.4505H52.572ZM58.6151 7.48995H60.044V14.2171H63.4584V15.508H58.6158V7.48995H58.6151ZM69.3635 7.48995H70.6003L74.0592 15.508H72.4262L71.6776 13.6732H68.1949L67.4686 15.508H65.8697L69.3635 7.48995V7.48995ZM71.1783 12.4505L69.9422 9.18898L68.6831 12.4505H71.1783ZM77.2206 7.48995H79.1155L83.0062 13.4469H83.0292V7.49069H84.4582V15.508H82.6434L78.6726 9.35888H78.6503V15.508H77.2206V7.48995ZM94.0306 9.37075C93.7361 9.0532 93.4489 8.84175 93.1685 8.73566C92.905 8.63184 92.6244 8.57824 92.3412 8.57762C91.925 8.57762 91.5466 8.65256 91.2061 8.80391C90.8785 8.94402 90.5845 9.15245 90.3439 9.41527C90.1021 9.67198 89.9136 9.97395 89.7771 10.3212C89.6487 10.6684 89.5842 11.0423 89.5842 11.4422C89.5842 11.8726 89.6487 12.2688 89.7771 12.6316C89.9136 12.9936 90.1021 13.3067 90.3439 13.5716C90.5866 13.8357 90.8737 14.0435 91.2061 14.1948C91.5466 14.3454 91.925 14.4204 92.3412 14.4204C92.6685 14.4199 92.991 14.3424 93.2827 14.1941C93.5921 14.036 93.88 13.786 94.1449 13.4469L95.3238 14.2853C94.961 14.7824 94.5188 15.146 93.9965 15.3715C93.4703 15.599 92.9026 15.7147 92.3294 15.7113C91.7455 15.7179 91.1653 15.6183 90.617 15.4175C90.1194 15.2245 89.6644 14.9359 89.2778 14.568C88.9012 14.189 88.6043 13.7384 88.4045 13.2429C88.1931 12.7295 88.087 12.1597 88.087 11.5328C88.087 10.8917 88.1931 10.31 88.4045 9.7892C88.6005 9.28512 88.8977 8.82655 89.2778 8.44185C89.6605 8.06891 90.1165 7.77961 90.617 7.59233C91.1635 7.38396 91.7444 7.28026 92.3294 7.28666C92.8739 7.28666 93.377 7.38459 93.8377 7.5812C94.3066 7.76966 94.7414 8.09388 95.1428 8.55462L94.0306 9.37075V9.37075ZM98.552 7.48995H99.9817V10.684H103.736V7.48995H105.166V15.508H103.736V11.9749H99.9817V15.508H98.552V7.48995ZM109.229 7.48995H114.549V8.78091H110.658V10.7515H114.345V12.0425H110.658V14.2163H114.754V15.5073H109.229V7.49069V7.48995Z" fill="#0C131F"/>
<path fill-rule="evenodd" clip-rule="evenodd" d="M24.0253 11.5C24.0253 17.851 18.8673 23 12.5053 23C6.14316 23 0.985962 17.851 0.985962 11.5C0.985962 5.14903 6.14316 0 12.5045 0C18.8659 0 24.0245 5.14903 24.0245 11.5H24.0253ZM9.24148 16.0763H7.00528C6.53564 16.0763 6.30341 16.0763 6.16245 15.9857C6.08754 15.9373 6.02511 15.8719 5.98025 15.7948C5.93538 15.7177 5.90934 15.6311 5.90425 15.5421C5.89609 15.3759 6.01183 15.1718 6.24406 14.7653L11.7641 5.05184C11.9993 4.63932 12.118 4.43306 12.2686 4.35739C12.3483 4.31715 12.4364 4.29619 12.5257 4.29619C12.615 4.29619 12.703 4.31715 12.7827 4.35739C12.9333 4.43306 13.0521 4.63932 13.2873 5.05184L14.4217 7.02984L14.4276 7.03948C14.6813 7.48242 14.8097 7.70723 14.8653 7.94242C14.9284 8.19913 14.9284 8.47068 14.8653 8.72739C14.8097 8.96481 14.6821 9.1911 14.4246 9.63997L11.5252 14.7571L11.5177 14.7697C11.2618 15.2164 11.1319 15.4419 10.9539 15.6125C10.758 15.7995 10.5235 15.9345 10.2653 16.011C10.0309 16.0763 9.76751 16.0763 9.24148 16.0763ZM14.8876 16.0763H18.0905C18.5632 16.0763 18.8006 16.0763 18.9423 15.9835C19.0176 15.9349 19.0802 15.869 19.125 15.7913C19.1697 15.7136 19.1954 15.6264 19.1997 15.5369C19.2079 15.3759 19.0944 15.1807 18.8718 14.7972L18.8495 14.7571L17.244 12.0164L17.2262 11.986C17.0006 11.6054 16.8864 11.4132 16.741 11.339C16.6617 11.2986 16.574 11.2776 16.485 11.2776C16.396 11.2776 16.3083 11.2986 16.229 11.339C16.0806 11.4147 15.9619 11.6157 15.7275 12.0194L14.1286 14.7601L14.1227 14.7697C13.889 15.1726 13.7717 15.3744 13.7806 15.5398C13.7857 15.6291 13.8116 15.716 13.8564 15.7934C13.9011 15.8708 13.9633 15.9367 14.0381 15.9857C14.1768 16.0763 14.4143 16.0763 14.8869 16.0763H14.8876Z" fill="#0C131F"/>
</g>
</g>
<defs>
<clipPath id="clip0_44_1163">
<rect width="115" height="23" fill="white" transform="translate(0.5)"/>
</clipPath>
</defs>
</svg>
